<?xml version="1.0" encoding="UTF-8" standalone="no"?>
<!DOCTYPE svg PUBLIC "-//W3C//DTD SVG 1.1//EN"
 "http://www.w3.org/Graphics/SVG/1.1/DTD/svg11.dtd">
<!-- Generated by graphviz version 2.38.0 (20140413.2041)
 -->
<!-- Title: TableGraph Pages: 1 -->
<svg width="400pt" height="350pt"
 viewBox="0.00 0.00 399.50 349.50" xmlns="http://www.w3.org/2000/svg" xmlns:xlink="http://www.w3.org/1999/xlink">
<g id="graph0" class="graph" transform="scale(1 1) rotate(0) translate(4 345.5)">
<title>TableGraph</title>
<g id="a_graph0"><a xlink:href="http://tools.hibernate.org" xlink:title="Table Graph">
<polygon fill="white" stroke="none" points="-4,4 -4,-345.5 395.5,-345.5 395.5,4 -4,4"/>
<text text-anchor="middle" x="195.75" y="-7" font-family="Helvetica,sans-Serif" font-size="10.00">Table Graph</text>
</a>
</g>
<!-- BALLOT_DOCUMENT_ELEMENT -->
<g id="node1" class="node"><title>BALLOT_DOCUMENT_ELEMENT</title>
<polygon fill="yellow" stroke="black" points="-1.42109e-14,-189 -1.42109e-14,-341 203,-341 203,-189 -1.42109e-14,-189"/>
<text text-anchor="middle" x="101.5" y="-329" font-family="Helvetica,sans-Serif" font-size="10.00">BALLOT_DOCUMENT_ELEMENT</text>
<polyline fill="none" stroke="black" points="-1.42109e-14,-322 203,-322 "/>
<text text-anchor="start" x="8" y="-310" font-family="Helvetica,sans-Serif" font-size="10.00">HJID</text>
<polyline fill="none" stroke="black" points="-1.42109e-14,-303 203,-303 "/>
<text text-anchor="start" x="8" y="-291" font-family="Helvetica,sans-Serif" font-size="10.00">ABSENT_VOTES</text>
<polyline fill="none" stroke="black" points="-1.42109e-14,-284 203,-284 "/>
<text text-anchor="start" x="8" y="-272" font-family="Helvetica,sans-Serif" font-size="10.00">ABSTAINED_VOTES</text>
<polyline fill="none" stroke="black" points="-1.42109e-14,-265 203,-265 "/>
<text text-anchor="start" x="8" y="-253" font-family="Helvetica,sans-Serif" font-size="10.00">BALLOT_ID</text>
<polyline fill="none" stroke="black" points="-1.42109e-14,-246 203,-246 "/>
<text text-anchor="start" x="8" y="-234" font-family="Helvetica,sans-Serif" font-size="10.00">NO_VOTES</text>
<polyline fill="none" stroke="black" points="-1.42109e-14,-227 203,-227 "/>
<text text-anchor="start" x="8" y="-215" font-family="Helvetica,sans-Serif" font-size="10.00">YES_VOTES</text>
<polyline fill="none" stroke="black" points="-1.42109e-14,-208 203,-208 "/>
<text text-anchor="start" x="8" y="-196" font-family="Helvetica,sans-Serif" font-size="10.00">VOTERING_VOTE_LIST_CONTAINER_0</text>
</g>
<!-- VOTE_LIST_CONTAINER_ELEMENT -->
<g id="node2" class="node"><title>VOTE_LIST_CONTAINER_ELEMENT</title>
<polygon fill="yellow" stroke="black" points="203.5,-19.5 203.5,-114.5 391.5,-114.5 391.5,-19.5 203.5,-19.5"/>
<text text-anchor="middle" x="297.5" y="-102.5" font-family="Helvetica,sans-Serif" font-size="10.00">VOTE_LIST_CONTAINER_ELEMENT</text>
<polyline fill="none" stroke="black" points="203.5,-95.5 391.5,-95.5 "/>
<text text-anchor="start" x="211.5" y="-83.5" font-family="Helvetica,sans-Serif" font-size="10.00">HJID</text>
<polyline fill="none" stroke="black" points="203.5,-76.5 391.5,-76.5 "/>
<text text-anchor="start" x="211.5" y="-64.5" font-family="Helvetica,sans-Serif" font-size="10.00">CONDITION</text>
<polyline fill="none" stroke="black" points="203.5,-57.5 391.5,-57.5 "/>
<text text-anchor="start" x="211.5" y="-45.5" font-family="Helvetica,sans-Serif" font-size="10.00">GROUPING_</text>
<polyline fill="none" stroke="black" points="203.5,-38.5 391.5,-38.5 "/>
<text text-anchor="start" x="211.5" y="-26.5" font-family="Helvetica,sans-Serif" font-size="10.00">NUMBER_VALUE</text>
</g>
<!-- BALLOT_DOCUMENT_ELEMENT&#45;&gt;VOTE_LIST_CONTAINER_ELEMENT -->
<g id="edge1" class="edge"><title>BALLOT_DOCUMENT_ELEMENT:se&#45;&gt;VOTE_LIST_CONTAINER_ELEMENT:nw</title>
<path fill="none" stroke="lightgrey" d="M203.5,-188.5C223.802,-168.198 190.574,-144.649 197.911,-123.561"/>
<polygon fill="lightgrey" stroke="lightgrey" points="200.964,-125.287 203.5,-115 195.103,-121.46 200.964,-125.287"/>
<text text-anchor="middle" x="266" y="-164.1" font-family="Helvetica,sans-Serif" font-size="8.00">FK1x1owmainpondq508lm7dllrf</text>
</g>
</g>
</svg>
