<?xml version="1.0" encoding="UTF-8" standalone="no"?>
<!DOCTYPE svg PUBLIC "-//W3C//DTD SVG 1.1//EN"
 "http://www.w3.org/Graphics/SVG/1.1/DTD/svg11.dtd">
<!-- Generated by graphviz version 2.38.0 (20140413.2041)
 -->
<!-- Title: TableGraph Pages: 1 -->
<svg width="421pt" height="1167pt"
 viewBox="0.00 0.00 421.00 1166.50" xmlns="http://www.w3.org/2000/svg" xmlns:xlink="http://www.w3.org/1999/xlink">
<g id="graph0" class="graph" transform="scale(1 1) rotate(0) translate(4 1162.5)">
<title>TableGraph</title>
<g id="a_graph0"><a xlink:href="http://tools.hibernate.org" xlink:title="Table Graph">
<polygon fill="white" stroke="none" points="-4,4 -4,-1162.5 417,-1162.5 417,4 -4,4"/>
<text text-anchor="middle" x="206.5" y="-7" font-family="Helvetica,sans-Serif" font-size="10.00">Table Graph</text>
</a>
</g>
<!-- DOCUMENT_CONTAINER_ELEMENT -->
<g id="node1" class="node"><title>DOCUMENT_CONTAINER_ELEMENT</title>
<polygon fill="yellow" stroke="black" points="220,-19.5 220,-266.5 413,-266.5 413,-19.5 220,-19.5"/>
<text text-anchor="middle" x="316.5" y="-254.5" font-family="Helvetica,sans-Serif" font-size="10.00">DOCUMENT_CONTAINER_ELEMENT</text>
<polyline fill="none" stroke="black" points="220,-247.5 413,-247.5 "/>
<text text-anchor="start" x="228" y="-235.5" font-family="Helvetica,sans-Serif" font-size="10.00">HJID</text>
<polyline fill="none" stroke="black" points="220,-228.5 413,-228.5 "/>
<text text-anchor="start" x="228" y="-216.5" font-family="Helvetica,sans-Serif" font-size="10.00">CREATED</text>
<polyline fill="none" stroke="black" points="220,-209.5 413,-209.5 "/>
<text text-anchor="start" x="228" y="-197.5" font-family="Helvetica,sans-Serif" font-size="10.00">DATUM</text>
<polyline fill="none" stroke="black" points="220,-190.5 413,-190.5 "/>
<text text-anchor="start" x="228" y="-178.5" font-family="Helvetica,sans-Serif" font-size="10.00">DEBUG</text>
<polyline fill="none" stroke="black" points="220,-171.5 413,-171.5 "/>
<text text-anchor="start" x="228" y="-159.5" font-family="Helvetica,sans-Serif" font-size="10.00">DOCUMENT_VERSION</text>
<polyline fill="none" stroke="black" points="220,-152.5 413,-152.5 "/>
<text text-anchor="start" x="228" y="-140.5" font-family="Helvetica,sans-Serif" font-size="10.00">HITS</text>
<polyline fill="none" stroke="black" points="220,-133.5 413,-133.5 "/>
<text text-anchor="start" x="228" y="-121.5" font-family="Helvetica,sans-Serif" font-size="10.00">HITS_FROM</text>
<polyline fill="none" stroke="black" points="220,-114.5 413,-114.5 "/>
<text text-anchor="start" x="228" y="-102.5" font-family="Helvetica,sans-Serif" font-size="10.00">HITS_TO</text>
<polyline fill="none" stroke="black" points="220,-95.5 413,-95.5 "/>
<text text-anchor="start" x="228" y="-83.5" font-family="Helvetica,sans-Serif" font-size="10.00">NEXT_PAGE</text>
<polyline fill="none" stroke="black" points="220,-76.5 413,-76.5 "/>
<text text-anchor="start" x="228" y="-64.5" font-family="Helvetica,sans-Serif" font-size="10.00">PAGE</text>
<polyline fill="none" stroke="black" points="220,-57.5 413,-57.5 "/>
<text text-anchor="start" x="228" y="-45.5" font-family="Helvetica,sans-Serif" font-size="10.00">TOTAL_PAGES</text>
<polyline fill="none" stroke="black" points="220,-38.5 413,-38.5 "/>
<text text-anchor="start" x="228" y="-26.5" font-family="Helvetica,sans-Serif" font-size="10.00">WARNING</text>
</g>
<!-- DOCUMENT_ELEMENT -->
<g id="node2" class="node"><title>DOCUMENT_ELEMENT</title>
<polygon fill="yellow" stroke="black" points="0,-512 0,-1158 219,-1158 219,-512 0,-512"/>
<text text-anchor="middle" x="109.5" y="-1146" font-family="Helvetica,sans-Serif" font-size="10.00">DOCUMENT_ELEMENT</text>
<polyline fill="none" stroke="black" points="0,-1139 219,-1139 "/>
<text text-anchor="start" x="8" y="-1127" font-family="Helvetica,sans-Serif" font-size="10.00">ID</text>
<polyline fill="none" stroke="black" points="0,-1120 219,-1120 "/>
<text text-anchor="start" x="8" y="-1108" font-family="Helvetica,sans-Serif" font-size="10.00">COMMITTEE_REPORT_URL_XML</text>
<polyline fill="none" stroke="black" points="0,-1101 219,-1101 "/>
<text text-anchor="start" x="8" y="-1089" font-family="Helvetica,sans-Serif" font-size="10.00">CREATED_DATE</text>
<polyline fill="none" stroke="black" points="0,-1082 219,-1082 "/>
<text text-anchor="start" x="8" y="-1070" font-family="Helvetica,sans-Serif" font-size="10.00">DATABASE_SOURCE</text>
<polyline fill="none" stroke="black" points="0,-1063 219,-1063 "/>
<text text-anchor="start" x="8" y="-1051" font-family="Helvetica,sans-Serif" font-size="10.00">DEBATE_NAME</text>
<polyline fill="none" stroke="black" points="0,-1044 219,-1044 "/>
<text text-anchor="start" x="8" y="-1032" font-family="Helvetica,sans-Serif" font-size="10.00">DOC_TYPE</text>
<polyline fill="none" stroke="black" points="0,-1025 219,-1025 "/>
<text text-anchor="start" x="8" y="-1013" font-family="Helvetica,sans-Serif" font-size="10.00">DOCUMENT_FORMAT</text>
<polyline fill="none" stroke="black" points="0,-1006 219,-1006 "/>
<text text-anchor="start" x="8" y="-994" font-family="Helvetica,sans-Serif" font-size="10.00">DOCUMENT_NAME</text>
<polyline fill="none" stroke="black" points="0,-987 219,-987 "/>
<text text-anchor="start" x="8" y="-975" font-family="Helvetica,sans-Serif" font-size="10.00">DOCUMENT_STATUS_URL_XML</text>
<polyline fill="none" stroke="black" points="0,-968 219,-968 "/>
<text text-anchor="start" x="8" y="-956" font-family="Helvetica,sans-Serif" font-size="10.00">DOCUMENT_TYPE</text>
<polyline fill="none" stroke="black" points="0,-949 219,-949 "/>
<text text-anchor="start" x="8" y="-937" font-family="Helvetica,sans-Serif" font-size="10.00">DOCUMENT_URL_HTML</text>
<polyline fill="none" stroke="black" points="0,-930 219,-930 "/>
<text text-anchor="start" x="8" y="-918" font-family="Helvetica,sans-Serif" font-size="10.00">DOCUMENT_URL_TEXT</text>
<polyline fill="none" stroke="black" points="0,-911 219,-911 "/>
<text text-anchor="start" x="8" y="-899" font-family="Helvetica,sans-Serif" font-size="10.00">DOMAIN_ORG</text>
<polyline fill="none" stroke="black" points="0,-892 219,-892 "/>
<text text-anchor="start" x="8" y="-880" font-family="Helvetica,sans-Serif" font-size="10.00">HIT</text>
<polyline fill="none" stroke="black" points="0,-873 219,-873 "/>
<text text-anchor="start" x="8" y="-861" font-family="Helvetica,sans-Serif" font-size="10.00">KALL_ID</text>
<polyline fill="none" stroke="black" points="0,-854 219,-854 "/>
<text text-anchor="start" x="8" y="-842" font-family="Helvetica,sans-Serif" font-size="10.00">LABEL</text>
<polyline fill="none" stroke="black" points="0,-835 219,-835 "/>
<text text-anchor="start" x="8" y="-823" font-family="Helvetica,sans-Serif" font-size="10.00">LANG</text>
<polyline fill="none" stroke="black" points="0,-816 219,-816 "/>
<text text-anchor="start" x="8" y="-804" font-family="Helvetica,sans-Serif" font-size="10.00">MADE_PUBLIC_DATE</text>
<polyline fill="none" stroke="black" points="0,-797 219,-797 "/>
<text text-anchor="start" x="8" y="-785" font-family="Helvetica,sans-Serif" font-size="10.00">NOTE</text>
<polyline fill="none" stroke="black" points="0,-778 219,-778 "/>
<text text-anchor="start" x="8" y="-766" font-family="Helvetica,sans-Serif" font-size="10.00">NOTE_TITLE</text>
<polyline fill="none" stroke="black" points="0,-759 219,-759 "/>
<text text-anchor="start" x="8" y="-747" font-family="Helvetica,sans-Serif" font-size="10.00">NUMBER_VALUE</text>
<polyline fill="none" stroke="black" points="0,-740 219,-740 "/>
<text text-anchor="start" x="8" y="-728" font-family="Helvetica,sans-Serif" font-size="10.00">ORG</text>
<polyline fill="none" stroke="black" points="0,-721 219,-721 "/>
<text text-anchor="start" x="8" y="-709" font-family="Helvetica,sans-Serif" font-size="10.00">ORIGIN</text>
<polyline fill="none" stroke="black" points="0,-702 219,-702 "/>
<text text-anchor="start" x="8" y="-690" font-family="Helvetica,sans-Serif" font-size="10.00">RELATED_ID</text>
<polyline fill="none" stroke="black" points="0,-683 219,-683 "/>
<text text-anchor="start" x="8" y="-671" font-family="Helvetica,sans-Serif" font-size="10.00">RM</text>
<polyline fill="none" stroke="black" points="0,-664 219,-664 "/>
<text text-anchor="start" x="8" y="-652" font-family="Helvetica,sans-Serif" font-size="10.00">STATUS</text>
<polyline fill="none" stroke="black" points="0,-645 219,-645 "/>
<text text-anchor="start" x="8" y="-633" font-family="Helvetica,sans-Serif" font-size="10.00">SUB_TITLE</text>
<polyline fill="none" stroke="black" points="0,-626 219,-626 "/>
<text text-anchor="start" x="8" y="-614" font-family="Helvetica,sans-Serif" font-size="10.00">SUB_TYPE</text>
<polyline fill="none" stroke="black" points="0,-607 219,-607 "/>
<text text-anchor="start" x="8" y="-595" font-family="Helvetica,sans-Serif" font-size="10.00">SUMMARY</text>
<polyline fill="none" stroke="black" points="0,-588 219,-588 "/>
<text text-anchor="start" x="8" y="-576" font-family="Helvetica,sans-Serif" font-size="10.00">SYSTEM_DATE</text>
<polyline fill="none" stroke="black" points="0,-569 219,-569 "/>
<text text-anchor="start" x="8" y="-557" font-family="Helvetica,sans-Serif" font-size="10.00">TEMP_LABEL</text>
<polyline fill="none" stroke="black" points="0,-550 219,-550 "/>
<text text-anchor="start" x="8" y="-538" font-family="Helvetica,sans-Serif" font-size="10.00">TITLE</text>
<polyline fill="none" stroke="black" points="0,-531 219,-531 "/>
<text text-anchor="start" x="8" y="-519" font-family="Helvetica,sans-Serif" font-size="10.00">DOKUMENT_DOCUMENT_CONTAINER__0</text>
</g>
<!-- DOCUMENT_ELEMENT&#45;&gt;DOCUMENT_CONTAINER_ELEMENT -->
<g id="edge1" class="edge"><title>DOCUMENT_ELEMENT:se&#45;&gt;DOCUMENT_CONTAINER_ELEMENT:nw</title>
<path fill="none" stroke="lightgrey" d="M219.5,-511.5C293.788,-437.212 152.612,-349.855 212.592,-274.699"/>
<polygon fill="lightgrey" stroke="lightgrey" points="215.426,-276.78 219.5,-267 210.216,-272.105 215.426,-276.78"/>
<text text-anchor="middle" x="294.5" y="-487.1" font-family="Helvetica,sans-Serif" font-size="8.00">FK86m6a302xfuxpgc09kfpap41b</text>
</g>
</g>
</svg>
