<?xml version="1.0" encoding="UTF-8" standalone="no"?>
<!DOCTYPE svg PUBLIC "-//W3C//DTD SVG 1.1//EN"
 "http://www.w3.org/Graphics/SVG/1.1/DTD/svg11.dtd">
<!-- Generated by graphviz version 2.38.0 (20140413.2041)
 -->
<!-- Title: TableGraph Pages: 1 -->
<svg width="656pt" height="1015pt"
 viewBox="0.00 0.00 656.00 1014.50" xmlns="http://www.w3.org/2000/svg" xmlns:xlink="http://www.w3.org/1999/xlink">
<g id="graph0" class="graph" transform="scale(1 1) rotate(0) translate(4 1010.5)">
<title>TableGraph</title>
<g id="a_graph0"><a xlink:href="http://tools.hibernate.org" xlink:title="Table Graph">
<polygon fill="white" stroke="none" points="-4,4 -4,-1010.5 652,-1010.5 652,4 -4,4"/>
<text text-anchor="middle" x="324" y="-7" font-family="Helvetica,sans-Serif" font-size="10.00">Table Graph</text>
</a>
</g>
<!-- BALLOT_CONTAINER -->
<g id="node1" class="node"><title>BALLOT_CONTAINER</title>
<polygon fill="yellow" stroke="black" points="0,-768.5 0,-844.5 210,-844.5 210,-768.5 0,-768.5"/>
<text text-anchor="middle" x="105" y="-832.5" font-family="Helvetica,sans-Serif" font-size="10.00">BALLOT_CONTAINER</text>
<polyline fill="none" stroke="black" points="0,-825.5 210,-825.5 "/>
<text text-anchor="start" x="8" y="-813.5" font-family="Helvetica,sans-Serif" font-size="10.00">HJID</text>
<polyline fill="none" stroke="black" points="0,-806.5 210,-806.5 "/>
<text text-anchor="start" x="8" y="-794.5" font-family="Helvetica,sans-Serif" font-size="10.00">BALLOT_DOCUMENT_DATA_BALLOT__0</text>
<polyline fill="none" stroke="black" points="0,-787.5 210,-787.5 "/>
<text text-anchor="start" x="8" y="-775.5" font-family="Helvetica,sans-Serif" font-size="10.00">BALLOT_DOCUMENT_ELEMENT_BALL_0</text>
</g>
<!-- BALLOT_DOCUMENT_DATA -->
<g id="node2" class="node"><title>BALLOT_DOCUMENT_DATA</title>
<polygon fill="yellow" stroke="black" points="418,-247.5 418,-285.5 568,-285.5 568,-247.5 418,-247.5"/>
<text text-anchor="middle" x="493" y="-273.5" font-family="Helvetica,sans-Serif" font-size="10.00">BALLOT_DOCUMENT_DATA</text>
<polyline fill="none" stroke="black" points="418,-266.5 568,-266.5 "/>
<text text-anchor="start" x="426" y="-254.5" font-family="Helvetica,sans-Serif" font-size="10.00">HJID</text>
</g>
<!-- BALLOT_CONTAINER&#45;&gt;BALLOT_DOCUMENT_DATA -->
<g id="edge1" class="edge"><title>BALLOT_CONTAINER:se&#45;&gt;BALLOT_DOCUMENT_DATA:nw</title>
<path fill="none" stroke="lightgrey" d="M210,-767.5C261.412,-716.088 199.617,-667.617 239,-606.5 258.599,-576.084 353.142,-544.247 373,-514 427.578,-430.868 350.882,-364.217 410.884,-294.171"/>
<polygon fill="lightgrey" stroke="lightgrey" points="413.765,-296.212 418,-286.5 408.633,-291.451 413.765,-296.212"/>
<text text-anchor="middle" x="413.5" y="-534.6" font-family="Helvetica,sans-Serif" font-size="8.00">FKihms5cyyptsuxmwa990hxu2q2</text>
</g>
<!-- BALLOT_DOCUMENT_ELEMENT -->
<g id="node3" class="node"><title>BALLOT_DOCUMENT_ELEMENT</title>
<polygon fill="yellow" stroke="black" points="189.5,-19.5 189.5,-513.5 364.5,-513.5 364.5,-19.5 189.5,-19.5"/>
<text text-anchor="middle" x="277" y="-501.5" font-family="Helvetica,sans-Serif" font-size="10.00">BALLOT_DOCUMENT_ELEMENT</text>
<polyline fill="none" stroke="black" points="189.5,-494.5 364.5,-494.5 "/>
<text text-anchor="start" x="197.5" y="-482.5" font-family="Helvetica,sans-Serif" font-size="10.00">SOURCEID</text>
<polyline fill="none" stroke="black" points="189.5,-475.5 364.5,-475.5 "/>
<text text-anchor="start" x="197.5" y="-463.5" font-family="Helvetica,sans-Serif" font-size="10.00">COMMITTEE_REPORT_URL_XML</text>
<polyline fill="none" stroke="black" points="189.5,-456.5 364.5,-456.5 "/>
<text text-anchor="start" x="197.5" y="-444.5" font-family="Helvetica,sans-Serif" font-size="10.00">CREATED_DATE</text>
<polyline fill="none" stroke="black" points="189.5,-437.5 364.5,-437.5 "/>
<text text-anchor="start" x="197.5" y="-425.5" font-family="Helvetica,sans-Serif" font-size="10.00">DOC_ID</text>
<polyline fill="none" stroke="black" points="189.5,-418.5 364.5,-418.5 "/>
<text text-anchor="start" x="197.5" y="-406.5" font-family="Helvetica,sans-Serif" font-size="10.00">DOCUMENT_STATUS_URL_XML</text>
<polyline fill="none" stroke="black" points="189.5,-399.5 364.5,-399.5 "/>
<text text-anchor="start" x="197.5" y="-387.5" font-family="Helvetica,sans-Serif" font-size="10.00">DOCUMENT_TYPE</text>
<polyline fill="none" stroke="black" points="189.5,-380.5 364.5,-380.5 "/>
<text text-anchor="start" x="197.5" y="-368.5" font-family="Helvetica,sans-Serif" font-size="10.00">DOCUMENT_URL_HTML</text>
<polyline fill="none" stroke="black" points="189.5,-361.5 364.5,-361.5 "/>
<text text-anchor="start" x="197.5" y="-349.5" font-family="Helvetica,sans-Serif" font-size="10.00">DOCUMENT_URL_TEXT</text>
<polyline fill="none" stroke="black" points="189.5,-342.5 364.5,-342.5 "/>
<text text-anchor="start" x="197.5" y="-330.5" font-family="Helvetica,sans-Serif" font-size="10.00">ELEMENT_TYPE</text>
<polyline fill="none" stroke="black" points="189.5,-323.5 364.5,-323.5 "/>
<text text-anchor="start" x="197.5" y="-311.5" font-family="Helvetica,sans-Serif" font-size="10.00">END_NUMBER_VALUE</text>
<polyline fill="none" stroke="black" points="189.5,-304.5 364.5,-304.5 "/>
<text text-anchor="start" x="197.5" y="-292.5" font-family="Helvetica,sans-Serif" font-size="10.00">HANGAR_ID</text>
<polyline fill="none" stroke="black" points="189.5,-285.5 364.5,-285.5 "/>
<text text-anchor="start" x="197.5" y="-273.5" font-family="Helvetica,sans-Serif" font-size="10.00">HTMLFORMAT</text>
<polyline fill="none" stroke="black" points="189.5,-266.5 364.5,-266.5 "/>
<text text-anchor="start" x="197.5" y="-254.5" font-family="Helvetica,sans-Serif" font-size="10.00">LABEL</text>
<polyline fill="none" stroke="black" points="189.5,-247.5 364.5,-247.5 "/>
<text text-anchor="start" x="197.5" y="-235.5" font-family="Helvetica,sans-Serif" font-size="10.00">MADE_PUBLIC_DATE</text>
<polyline fill="none" stroke="black" points="189.5,-228.5 364.5,-228.5 "/>
<text text-anchor="start" x="197.5" y="-216.5" font-family="Helvetica,sans-Serif" font-size="10.00">NUMBER_VALUE</text>
<polyline fill="none" stroke="black" points="189.5,-209.5 364.5,-209.5 "/>
<text text-anchor="start" x="197.5" y="-197.5" font-family="Helvetica,sans-Serif" font-size="10.00">ORG</text>
<polyline fill="none" stroke="black" points="189.5,-190.5 364.5,-190.5 "/>
<text text-anchor="start" x="197.5" y="-178.5" font-family="Helvetica,sans-Serif" font-size="10.00">RELATED_ID</text>
<polyline fill="none" stroke="black" points="189.5,-171.5 364.5,-171.5 "/>
<text text-anchor="start" x="197.5" y="-159.5" font-family="Helvetica,sans-Serif" font-size="10.00">RM</text>
<polyline fill="none" stroke="black" points="189.5,-152.5 364.5,-152.5 "/>
<text text-anchor="start" x="197.5" y="-140.5" font-family="Helvetica,sans-Serif" font-size="10.00">SOURCE_</text>
<polyline fill="none" stroke="black" points="189.5,-133.5 364.5,-133.5 "/>
<text text-anchor="start" x="197.5" y="-121.5" font-family="Helvetica,sans-Serif" font-size="10.00">STATUS</text>
<polyline fill="none" stroke="black" points="189.5,-114.5 364.5,-114.5 "/>
<text text-anchor="start" x="197.5" y="-102.5" font-family="Helvetica,sans-Serif" font-size="10.00">SUB_TITLE</text>
<polyline fill="none" stroke="black" points="189.5,-95.5 364.5,-95.5 "/>
<text text-anchor="start" x="197.5" y="-83.5" font-family="Helvetica,sans-Serif" font-size="10.00">SUB_TYPE</text>
<polyline fill="none" stroke="black" points="189.5,-76.5 364.5,-76.5 "/>
<text text-anchor="start" x="197.5" y="-64.5" font-family="Helvetica,sans-Serif" font-size="10.00">SYSTEM_DATE</text>
<polyline fill="none" stroke="black" points="189.5,-57.5 364.5,-57.5 "/>
<text text-anchor="start" x="197.5" y="-45.5" font-family="Helvetica,sans-Serif" font-size="10.00">TEMP_LABEL</text>
<polyline fill="none" stroke="black" points="189.5,-38.5 364.5,-38.5 "/>
<text text-anchor="start" x="197.5" y="-26.5" font-family="Helvetica,sans-Serif" font-size="10.00">TITLE</text>
</g>
<!-- BALLOT_CONTAINER&#45;&gt;BALLOT_DOCUMENT_ELEMENT -->
<g id="edge2" class="edge"><title>BALLOT_CONTAINER:se&#45;&gt;BALLOT_DOCUMENT_ELEMENT:nw</title>
<path fill="none" stroke="lightgrey" d="M210,-767.5C287.442,-690.058 120.11,-599.778 182.254,-521.534"/>
<polygon fill="lightgrey" stroke="lightgrey" points="184.936,-523.785 189,-514 179.722,-519.115 184.936,-523.785"/>
<text text-anchor="middle" x="225" y="-534.6" font-family="Helvetica,sans-Serif" font-size="8.00">FKjlk2cgg94nrv1wx3ijf2jo0lx</text>
</g>
<!-- VOTE_DATA -->
<g id="node4" class="node"><title>VOTE_DATA</title>
<polygon fill="yellow" stroke="black" points="472,-616.5 472,-996.5 648,-996.5 648,-616.5 472,-616.5"/>
<text text-anchor="middle" x="560" y="-984.5" font-family="Helvetica,sans-Serif" font-size="10.00">VOTE_DATA</text>
<polyline fill="none" stroke="black" points="472,-977.5 648,-977.5 "/>
<text text-anchor="start" x="480" y="-965.5" font-family="Helvetica,sans-Serif" font-size="10.00">EMBEDDED_ID_BALLOT_ID</text>
<polyline fill="none" stroke="black" points="472,-958.5 648,-958.5 "/>
<text text-anchor="start" x="480" y="-946.5" font-family="Helvetica,sans-Serif" font-size="10.00">EMBEDDED_ID_CONCERN</text>
<polyline fill="none" stroke="black" points="472,-939.5 648,-939.5 "/>
<text text-anchor="start" x="480" y="-927.5" font-family="Helvetica,sans-Serif" font-size="10.00">EMBEDDED_ID_INTRESSENT_ID</text>
<polyline fill="none" stroke="black" points="472,-920.5 648,-920.5 "/>
<text text-anchor="start" x="480" y="-908.5" font-family="Helvetica,sans-Serif" font-size="10.00">EMBEDDED_ID_ISSUE</text>
<polyline fill="none" stroke="black" points="472,-901.5 648,-901.5 "/>
<text text-anchor="start" x="480" y="-889.5" font-family="Helvetica,sans-Serif" font-size="10.00">BALLOT_TYPE</text>
<polyline fill="none" stroke="black" points="472,-882.5 648,-882.5 "/>
<text text-anchor="start" x="480" y="-870.5" font-family="Helvetica,sans-Serif" font-size="10.00">BANK_NUMBER</text>
<polyline fill="none" stroke="black" points="472,-863.5 648,-863.5 "/>
<text text-anchor="start" x="480" y="-851.5" font-family="Helvetica,sans-Serif" font-size="10.00">BORN_YEAR</text>
<polyline fill="none" stroke="black" points="472,-844.5 648,-844.5 "/>
<text text-anchor="start" x="480" y="-832.5" font-family="Helvetica,sans-Serif" font-size="10.00">ELECTORAL_REGION</text>
<polyline fill="none" stroke="black" points="472,-825.5 648,-825.5 "/>
<text text-anchor="start" x="480" y="-813.5" font-family="Helvetica,sans-Serif" font-size="10.00">ELECTORAL_REGION_NUMBER</text>
<polyline fill="none" stroke="black" points="472,-806.5 648,-806.5 "/>
<text text-anchor="start" x="480" y="-794.5" font-family="Helvetica,sans-Serif" font-size="10.00">FIRST_NAME</text>
<polyline fill="none" stroke="black" points="472,-787.5 648,-787.5 "/>
<text text-anchor="start" x="480" y="-775.5" font-family="Helvetica,sans-Serif" font-size="10.00">FULL_NAME</text>
<polyline fill="none" stroke="black" points="472,-768.5 648,-768.5 "/>
<text text-anchor="start" x="480" y="-756.5" font-family="Helvetica,sans-Serif" font-size="10.00">GENDER</text>
<polyline fill="none" stroke="black" points="472,-749.5 648,-749.5 "/>
<text text-anchor="start" x="480" y="-737.5" font-family="Helvetica,sans-Serif" font-size="10.00">LABEL</text>
<polyline fill="none" stroke="black" points="472,-730.5 648,-730.5 "/>
<text text-anchor="start" x="480" y="-718.5" font-family="Helvetica,sans-Serif" font-size="10.00">LAST_NAME</text>
<polyline fill="none" stroke="black" points="472,-711.5 648,-711.5 "/>
<text text-anchor="start" x="480" y="-699.5" font-family="Helvetica,sans-Serif" font-size="10.00">PARTY</text>
<polyline fill="none" stroke="black" points="472,-692.5 648,-692.5 "/>
<text text-anchor="start" x="480" y="-680.5" font-family="Helvetica,sans-Serif" font-size="10.00">PLACE</text>
<polyline fill="none" stroke="black" points="472,-673.5 648,-673.5 "/>
<text text-anchor="start" x="480" y="-661.5" font-family="Helvetica,sans-Serif" font-size="10.00">RM</text>
<polyline fill="none" stroke="black" points="472,-654.5 648,-654.5 "/>
<text text-anchor="start" x="480" y="-642.5" font-family="Helvetica,sans-Serif" font-size="10.00">VOTE</text>
<polyline fill="none" stroke="black" points="472,-635.5 648,-635.5 "/>
<text text-anchor="start" x="480" y="-623.5" font-family="Helvetica,sans-Serif" font-size="10.00">VOTE_DATE</text>
</g>
<!-- VOTE_DATA_DTO -->
<g id="node5" class="node"><title>VOTE_DATA_DTO</title>
<polygon fill="yellow" stroke="black" points="248,-607 248,-1006 454,-1006 454,-607 248,-607"/>
<text text-anchor="middle" x="351" y="-994" font-family="Helvetica,sans-Serif" font-size="10.00">VOTE_DATA_DTO</text>
<polyline fill="none" stroke="black" points="248,-987 454,-987 "/>
<text text-anchor="start" x="256" y="-975" font-family="Helvetica,sans-Serif" font-size="10.00">BALLOT_ID</text>
<polyline fill="none" stroke="black" points="248,-968 454,-968 "/>
<text text-anchor="start" x="256" y="-956" font-family="Helvetica,sans-Serif" font-size="10.00">INTRESSENT_ID</text>
<polyline fill="none" stroke="black" points="248,-949 454,-949 "/>
<text text-anchor="start" x="256" y="-937" font-family="Helvetica,sans-Serif" font-size="10.00">ISSUE</text>
<polyline fill="none" stroke="black" points="248,-930 454,-930 "/>
<text text-anchor="start" x="256" y="-918" font-family="Helvetica,sans-Serif" font-size="10.00">BALLOT_TYPE</text>
<polyline fill="none" stroke="black" points="248,-911 454,-911 "/>
<text text-anchor="start" x="256" y="-899" font-family="Helvetica,sans-Serif" font-size="10.00">BANK_NUMBER</text>
<polyline fill="none" stroke="black" points="248,-892 454,-892 "/>
<text text-anchor="start" x="256" y="-880" font-family="Helvetica,sans-Serif" font-size="10.00">BORN_YEAR</text>
<polyline fill="none" stroke="black" points="248,-873 454,-873 "/>
<text text-anchor="start" x="256" y="-861" font-family="Helvetica,sans-Serif" font-size="10.00">CONCERN</text>
<polyline fill="none" stroke="black" points="248,-854 454,-854 "/>
<text text-anchor="start" x="256" y="-842" font-family="Helvetica,sans-Serif" font-size="10.00">ELECTORAL_REGION</text>
<polyline fill="none" stroke="black" points="248,-835 454,-835 "/>
<text text-anchor="start" x="256" y="-823" font-family="Helvetica,sans-Serif" font-size="10.00">ELECTORAL_REGION_NUMBER</text>
<polyline fill="none" stroke="black" points="248,-816 454,-816 "/>
<text text-anchor="start" x="256" y="-804" font-family="Helvetica,sans-Serif" font-size="10.00">FIRST_NAME</text>
<polyline fill="none" stroke="black" points="248,-797 454,-797 "/>
<text text-anchor="start" x="256" y="-785" font-family="Helvetica,sans-Serif" font-size="10.00">FULL_NAME</text>
<polyline fill="none" stroke="black" points="248,-778 454,-778 "/>
<text text-anchor="start" x="256" y="-766" font-family="Helvetica,sans-Serif" font-size="10.00">GENDER</text>
<polyline fill="none" stroke="black" points="248,-759 454,-759 "/>
<text text-anchor="start" x="256" y="-747" font-family="Helvetica,sans-Serif" font-size="10.00">LABEL</text>
<polyline fill="none" stroke="black" points="248,-740 454,-740 "/>
<text text-anchor="start" x="256" y="-728" font-family="Helvetica,sans-Serif" font-size="10.00">LAST_NAME</text>
<polyline fill="none" stroke="black" points="248,-721 454,-721 "/>
<text text-anchor="start" x="256" y="-709" font-family="Helvetica,sans-Serif" font-size="10.00">PARTY</text>
<polyline fill="none" stroke="black" points="248,-702 454,-702 "/>
<text text-anchor="start" x="256" y="-690" font-family="Helvetica,sans-Serif" font-size="10.00">PLACE</text>
<polyline fill="none" stroke="black" points="248,-683 454,-683 "/>
<text text-anchor="start" x="256" y="-671" font-family="Helvetica,sans-Serif" font-size="10.00">RM</text>
<polyline fill="none" stroke="black" points="248,-664 454,-664 "/>
<text text-anchor="start" x="256" y="-652" font-family="Helvetica,sans-Serif" font-size="10.00">VOTE</text>
<polyline fill="none" stroke="black" points="248,-645 454,-645 "/>
<text text-anchor="start" x="256" y="-633" font-family="Helvetica,sans-Serif" font-size="10.00">VOTE_DATE</text>
<polyline fill="none" stroke="black" points="248,-626 454,-626 "/>
<text text-anchor="start" x="256" y="-614" font-family="Helvetica,sans-Serif" font-size="10.00">VOTE_DATA_LIST_BALLOT_DOCUME_0</text>
</g>
<!-- VOTE_DATA_DTO&#45;&gt;BALLOT_DOCUMENT_DATA -->
<g id="edge3" class="edge"><title>VOTE_DATA_DTO:se&#45;&gt;BALLOT_DOCUMENT_DATA:nw</title>
<path fill="none" stroke="lightgrey" d="M454,-606.5C552.73,-507.77 328.238,-393.433 411.185,-293.941"/>
<polygon fill="lightgrey" stroke="lightgrey" points="413.827,-296.238 418,-286.5 408.665,-291.511 413.827,-296.238"/>
<text text-anchor="middle" x="537.5" y="-534.6" font-family="Helvetica,sans-Serif" font-size="8.00">FKr3lmo0hle2dd7aux3ad67uhwp</text>
</g>
</g>
</svg>
