<?xml version="1.0" encoding="UTF-8" standalone="no"?>
<!DOCTYPE svg PUBLIC "-//W3C//DTD SVG 1.1//EN"
 "http://www.w3.org/Graphics/SVG/1.1/DTD/svg11.dtd">
<!-- Generated by graphviz version 2.38.0 (20140413.2041)
 -->
<!-- Title: TableGraph Pages: 1 -->
<svg width="749pt" height="814pt"
 viewBox="0.00 0.00 749.00 813.50" xmlns="http://www.w3.org/2000/svg" xmlns:xlink="http://www.w3.org/1999/xlink">
<g id="graph0" class="graph" transform="scale(1 1) rotate(0) translate(4 809.5)">
<title>TableGraph</title>
<g id="a_graph0"><a xlink:href="http://tools.hibernate.org" xlink:title="Table Graph">
<polygon fill="white" stroke="none" points="-4,4 -4,-809.5 745,-809.5 745,4 -4,4"/>
<text text-anchor="middle" x="370.5" y="-7" font-family="Helvetica,sans-Serif" font-size="10.00">Table Graph</text>
</a>
</g>
<!-- ASSIGNMENT_DATA -->
<g id="node1" class="node"><title>ASSIGNMENT_DATA</title>
<polygon fill="yellow" stroke="black" points="0,-293.5 0,-521.5 204,-521.5 204,-293.5 0,-293.5"/>
<text text-anchor="middle" x="102" y="-509.5" font-family="Helvetica,sans-Serif" font-size="10.00">ASSIGNMENT_DATA</text>
<polyline fill="none" stroke="black" points="0,-502.5 204,-502.5 "/>
<text text-anchor="start" x="8" y="-490.5" font-family="Helvetica,sans-Serif" font-size="10.00">HJID</text>
<polyline fill="none" stroke="black" points="0,-483.5 204,-483.5 "/>
<text text-anchor="start" x="8" y="-471.5" font-family="Helvetica,sans-Serif" font-size="10.00">ASSIGNMENT_TYPE</text>
<polyline fill="none" stroke="black" points="0,-464.5 204,-464.5 "/>
<text text-anchor="start" x="8" y="-452.5" font-family="Helvetica,sans-Serif" font-size="10.00">DETAIL</text>
<polyline fill="none" stroke="black" points="0,-445.5 204,-445.5 "/>
<text text-anchor="start" x="8" y="-433.5" font-family="Helvetica,sans-Serif" font-size="10.00">FROM_DATE</text>
<polyline fill="none" stroke="black" points="0,-426.5 204,-426.5 "/>
<text text-anchor="start" x="8" y="-414.5" font-family="Helvetica,sans-Serif" font-size="10.00">INTRESSENT_ID</text>
<polyline fill="none" stroke="black" points="0,-407.5 204,-407.5 "/>
<text text-anchor="start" x="8" y="-395.5" font-family="Helvetica,sans-Serif" font-size="10.00">ORDER_NUMBER</text>
<polyline fill="none" stroke="black" points="0,-388.5 204,-388.5 "/>
<text text-anchor="start" x="8" y="-376.5" font-family="Helvetica,sans-Serif" font-size="10.00">ORG_CODE</text>
<polyline fill="none" stroke="black" points="0,-369.5 204,-369.5 "/>
<text text-anchor="start" x="8" y="-357.5" font-family="Helvetica,sans-Serif" font-size="10.00">ROLE_CODE</text>
<polyline fill="none" stroke="black" points="0,-350.5 204,-350.5 "/>
<text text-anchor="start" x="8" y="-338.5" font-family="Helvetica,sans-Serif" font-size="10.00">STATUS</text>
<polyline fill="none" stroke="black" points="0,-331.5 204,-331.5 "/>
<text text-anchor="start" x="8" y="-319.5" font-family="Helvetica,sans-Serif" font-size="10.00">TO_DATE</text>
<polyline fill="none" stroke="black" points="0,-312.5 204,-312.5 "/>
<text text-anchor="start" x="8" y="-300.5" font-family="Helvetica,sans-Serif" font-size="10.00">ASSIGNMENT_LIST_PERSON_ASSIG_0</text>
</g>
<!-- PERSON_ASSIGNMENT_DATA -->
<g id="node2" class="node"><title>PERSON_ASSIGNMENT_DATA</title>
<polygon fill="yellow" stroke="black" points="312,-19.5 312,-57.5 476,-57.5 476,-19.5 312,-19.5"/>
<text text-anchor="middle" x="394" y="-45.5" font-family="Helvetica,sans-Serif" font-size="10.00">PERSON_ASSIGNMENT_DATA</text>
<polyline fill="none" stroke="black" points="312,-38.5 476,-38.5 "/>
<text text-anchor="start" x="320" y="-26.5" font-family="Helvetica,sans-Serif" font-size="10.00">HJID</text>
</g>
<!-- ASSIGNMENT_DATA&#45;&gt;PERSON_ASSIGNMENT_DATA -->
<g id="edge1" class="edge"><title>ASSIGNMENT_DATA:se&#45;&gt;PERSON_ASSIGNMENT_DATA:nw</title>
<path fill="none" stroke="lightgrey" d="M204,-292.5C219.039,-277.461 205.957,-265.569 213,-245.5 243.046,-159.88 245.237,-127.084 304.847,-65.2797"/>
<polygon fill="lightgrey" stroke="lightgrey" points="307.488,-67.586 312,-58 302.495,-62.68 307.488,-67.586"/>
<text text-anchor="middle" x="281" y="-221.1" font-family="Helvetica,sans-Serif" font-size="8.00">FKaa59o8elny2vn9ssiq2pakmmy</text>
</g>
<!-- DETAIL_DATA -->
<g id="node3" class="node"><title>DETAIL_DATA</title>
<polygon fill="yellow" stroke="black" points="455.5,-341 455.5,-474 652.5,-474 652.5,-341 455.5,-341"/>
<text text-anchor="middle" x="554" y="-462" font-family="Helvetica,sans-Serif" font-size="10.00">DETAIL_DATA</text>
<polyline fill="none" stroke="black" points="455.5,-455 652.5,-455 "/>
<text text-anchor="start" x="463.5" y="-443" font-family="Helvetica,sans-Serif" font-size="10.00">HJID</text>
<polyline fill="none" stroke="black" points="455.5,-436 652.5,-436 "/>
<text text-anchor="start" x="463.5" y="-424" font-family="Helvetica,sans-Serif" font-size="10.00">CODE</text>
<polyline fill="none" stroke="black" points="455.5,-417 652.5,-417 "/>
<text text-anchor="start" x="463.5" y="-405" font-family="Helvetica,sans-Serif" font-size="10.00">DETAIL</text>
<polyline fill="none" stroke="black" points="455.5,-398 652.5,-398 "/>
<text text-anchor="start" x="463.5" y="-386" font-family="Helvetica,sans-Serif" font-size="10.00">DETAIL_TYPE</text>
<polyline fill="none" stroke="black" points="455.5,-379 652.5,-379 "/>
<text text-anchor="start" x="463.5" y="-367" font-family="Helvetica,sans-Serif" font-size="10.00">INTRESSENT_ID</text>
<polyline fill="none" stroke="black" points="455.5,-360 652.5,-360 "/>
<text text-anchor="start" x="463.5" y="-348" font-family="Helvetica,sans-Serif" font-size="10.00">DETAIL_LIST_PERSON_DETAIL_DA_0</text>
</g>
<!-- PERSON_DETAIL_DATA -->
<g id="node4" class="node"><title>PERSON_DETAIL_DATA</title>
<polygon fill="yellow" stroke="black" points="559,-19.5 559,-57.5 691,-57.5 691,-19.5 559,-19.5"/>
<text text-anchor="middle" x="625" y="-45.5" font-family="Helvetica,sans-Serif" font-size="10.00">PERSON_DETAIL_DATA</text>
<polyline fill="none" stroke="black" points="559,-38.5 691,-38.5 "/>
<text text-anchor="start" x="567" y="-26.5" font-family="Helvetica,sans-Serif" font-size="10.00">HJID</text>
</g>
<!-- DETAIL_DATA&#45;&gt;PERSON_DETAIL_DATA -->
<g id="edge2" class="edge"><title>DETAIL_DATA:se&#45;&gt;PERSON_DETAIL_DATA:nw</title>
<path fill="none" stroke="lightgrey" d="M653,-339.5C743.719,-248.781 480.794,-156.461 552.172,-65.6547"/>
<polygon fill="lightgrey" stroke="lightgrey" points="554.955,-67.7925 559,-58 549.732,-63.1329 554.955,-67.7925"/>
<text text-anchor="middle" x="687" y="-221.1" font-family="Helvetica,sans-Serif" font-size="8.00">FKjpf91ucj529qyt15gs7r0yx2p</text>
</g>
<!-- PERSON_CONTAINER_DATA -->
<g id="node5" class="node"><title>PERSON_CONTAINER_DATA</title>
<polygon fill="yellow" stroke="black" points="6.5,-748 6.5,-805 221.5,-805 221.5,-748 6.5,-748"/>
<text text-anchor="middle" x="114" y="-793" font-family="Helvetica,sans-Serif" font-size="10.00">PERSON_CONTAINER_DATA</text>
<polyline fill="none" stroke="black" points="6.5,-786 221.5,-786 "/>
<text text-anchor="start" x="14.5" y="-774" font-family="Helvetica,sans-Serif" font-size="10.00">HJID</text>
<polyline fill="none" stroke="black" points="6.5,-767 221.5,-767 "/>
<text text-anchor="start" x="14.5" y="-755" font-family="Helvetica,sans-Serif" font-size="10.00">PERSON_PERSON_CONTAINER_DATA_0</text>
</g>
<!-- PERSON_DATA -->
<g id="node6" class="node"><title>PERSON_DATA</title>
<polygon fill="yellow" stroke="black" points="222.5,-246 222.5,-569 437.5,-569 437.5,-246 222.5,-246"/>
<text text-anchor="middle" x="330" y="-557" font-family="Helvetica,sans-Serif" font-size="10.00">PERSON_DATA</text>
<polyline fill="none" stroke="black" points="222.5,-550 437.5,-550 "/>
<text text-anchor="start" x="230.5" y="-538" font-family="Helvetica,sans-Serif" font-size="10.00">ID</text>
<polyline fill="none" stroke="black" points="222.5,-531 437.5,-531 "/>
<text text-anchor="start" x="230.5" y="-519" font-family="Helvetica,sans-Serif" font-size="10.00">BORN_YEAR</text>
<polyline fill="none" stroke="black" points="222.5,-512 437.5,-512 "/>
<text text-anchor="start" x="230.5" y="-500" font-family="Helvetica,sans-Serif" font-size="10.00">ELECTION_REGION</text>
<polyline fill="none" stroke="black" points="222.5,-493 437.5,-493 "/>
<text text-anchor="start" x="230.5" y="-481" font-family="Helvetica,sans-Serif" font-size="10.00">FIRST_NAME</text>
<polyline fill="none" stroke="black" points="222.5,-474 437.5,-474 "/>
<text text-anchor="start" x="230.5" y="-462" font-family="Helvetica,sans-Serif" font-size="10.00">GENDER</text>
<polyline fill="none" stroke="black" points="222.5,-455 437.5,-455 "/>
<text text-anchor="start" x="230.5" y="-443" font-family="Helvetica,sans-Serif" font-size="10.00">HANGAR_GUID</text>
<polyline fill="none" stroke="black" points="222.5,-436 437.5,-436 "/>
<text text-anchor="start" x="230.5" y="-424" font-family="Helvetica,sans-Serif" font-size="10.00">IMAGE_URL_192</text>
<polyline fill="none" stroke="black" points="222.5,-417 437.5,-417 "/>
<text text-anchor="start" x="230.5" y="-405" font-family="Helvetica,sans-Serif" font-size="10.00">IMAGE_URL_80</text>
<polyline fill="none" stroke="black" points="222.5,-398 437.5,-398 "/>
<text text-anchor="start" x="230.5" y="-386" font-family="Helvetica,sans-Serif" font-size="10.00">IMAGE_URL_MAX</text>
<polyline fill="none" stroke="black" points="222.5,-379 437.5,-379 "/>
<text text-anchor="start" x="230.5" y="-367" font-family="Helvetica,sans-Serif" font-size="10.00">LAST_NAME</text>
<polyline fill="none" stroke="black" points="222.5,-360 437.5,-360 "/>
<text text-anchor="start" x="230.5" y="-348" font-family="Helvetica,sans-Serif" font-size="10.00">PARTY</text>
<polyline fill="none" stroke="black" points="222.5,-341 437.5,-341 "/>
<text text-anchor="start" x="230.5" y="-329" font-family="Helvetica,sans-Serif" font-size="10.00">PERSON_URL_XML</text>
<polyline fill="none" stroke="black" points="222.5,-322 437.5,-322 "/>
<text text-anchor="start" x="230.5" y="-310" font-family="Helvetica,sans-Serif" font-size="10.00">PLACE</text>
<polyline fill="none" stroke="black" points="222.5,-303 437.5,-303 "/>
<text text-anchor="start" x="230.5" y="-291" font-family="Helvetica,sans-Serif" font-size="10.00">STATUS</text>
<polyline fill="none" stroke="black" points="222.5,-284 437.5,-284 "/>
<text text-anchor="start" x="230.5" y="-272" font-family="Helvetica,sans-Serif" font-size="10.00">PERSON_ASSIGNMENT_DATA_PERSO_0</text>
<polyline fill="none" stroke="black" points="222.5,-265 437.5,-265 "/>
<text text-anchor="start" x="230.5" y="-253" font-family="Helvetica,sans-Serif" font-size="10.00">PERSON_DETAIL_DATA_PERSON_DA_0</text>
</g>
<!-- PERSON_CONTAINER_DATA&#45;&gt;PERSON_DATA -->
<g id="edge3" class="edge"><title>PERSON_CONTAINER_DATA:se&#45;&gt;PERSON_DATA:nw</title>
<path fill="none" stroke="lightgrey" d="M222,-747.5C275.427,-694.073 175.773,-631.36 215.447,-577.099"/>
<polygon fill="lightgrey" stroke="lightgrey" points="218.119,-579.359 222,-569.5 212.819,-574.787 218.119,-579.359"/>
<text text-anchor="middle" x="264.5" y="-590.1" font-family="Helvetica,sans-Serif" font-size="8.00">FK74yxgghu58va5py1jfh1hsi9c</text>
</g>
<!-- PERSON_DATA&#45;&gt;PERSON_ASSIGNMENT_DATA -->
<g id="edge4" class="edge"><title>PERSON_DATA:se&#45;&gt;PERSON_ASSIGNMENT_DATA:nw</title>
<path fill="none" stroke="lightgrey" d="M438,-245.5C458.894,-224.606 395.677,-247.579 374,-227.5 317.796,-175.439 260.657,-119.948 305.051,-65.6529"/>
<polygon fill="lightgrey" stroke="lightgrey" points="307.869,-67.7563 312,-58 302.686,-63.0506 307.869,-67.7563"/>
<text text-anchor="middle" x="434.5" y="-221.1" font-family="Helvetica,sans-Serif" font-size="8.00">FK74f0qofwn444t8smjgwemunoa</text>
</g>
<!-- PERSON_DATA&#45;&gt;PERSON_DETAIL_DATA -->
<g id="edge5" class="edge"><title>PERSON_DATA:se&#45;&gt;PERSON_DETAIL_DATA:nw</title>
<path fill="none" stroke="lightgrey" d="M438,-245.5C456.785,-226.715 475.704,-245.76 495,-227.5 550.86,-174.639 506.459,-120.076 551.963,-65.6749"/>
<polygon fill="lightgrey" stroke="lightgrey" points="554.821,-67.7361 559,-58 549.662,-63.0053 554.821,-67.7361"/>
<text text-anchor="middle" x="554" y="-221.1" font-family="Helvetica,sans-Serif" font-size="8.00">FKshlddrbyxj7xi9ux61l6d6t17</text>
</g>
</g>
</svg>
