<?xml version="1.0" encoding="UTF-8" standalone="no"?>
<!DOCTYPE svg PUBLIC "-//W3C//DTD SVG 1.1//EN"
 "http://www.w3.org/Graphics/SVG/1.1/DTD/svg11.dtd">
<!-- Generated by graphviz version 2.38.0 (20140413.2041)
 -->
<!-- Title: TableGraph Pages: 1 -->
<svg width="2090pt" height="1089pt"
 viewBox="0.00 0.00 2090.00 1089.00" xmlns="http://www.w3.org/2000/svg" xmlns:xlink="http://www.w3.org/1999/xlink">
<g id="graph0" class="graph" transform="scale(1 1) rotate(0) translate(4 1085)">
<title>TableGraph</title>
<g id="a_graph0"><a xlink:href="http://tools.hibernate.org" xlink:title="Table Graph">
<polygon fill="white" stroke="none" points="-4,4 -4,-1085 2086,-1085 2086,4 -4,4"/>
<text text-anchor="middle" x="1041" y="-7" font-family="Helvetica,sans-Serif" font-size="10.00">Table Graph</text>
</a>
</g>
<!-- DOCUMENT_ACTIVITY_CONTAINER -->
<g id="node1" class="node"><title>DOCUMENT_ACTIVITY_CONTAINER</title>
<polygon fill="yellow" stroke="black" points="258.5,-540.5 258.5,-578.5 449.5,-578.5 449.5,-540.5 258.5,-540.5"/>
<text text-anchor="middle" x="354" y="-566.5" font-family="Helvetica,sans-Serif" font-size="10.00">DOCUMENT_ACTIVITY_CONTAINER</text>
<polyline fill="none" stroke="black" points="258.5,-559.5 449.5,-559.5 "/>
<text text-anchor="start" x="266.5" y="-547.5" font-family="Helvetica,sans-Serif" font-size="10.00">HJID</text>
</g>
<!-- DOCUMENT_ACTIVITY_DATA -->
<g id="node2" class="node"><title>DOCUMENT_ACTIVITY_DATA</title>
<polygon fill="yellow" stroke="black" points="0,-900 0,-1071 210,-1071 210,-900 0,-900"/>
<text text-anchor="middle" x="105" y="-1059" font-family="Helvetica,sans-Serif" font-size="10.00">DOCUMENT_ACTIVITY_DATA</text>
<polyline fill="none" stroke="black" points="0,-1052 210,-1052 "/>
<text text-anchor="start" x="8" y="-1040" font-family="Helvetica,sans-Serif" font-size="10.00">HJID</text>
<polyline fill="none" stroke="black" points="0,-1033 210,-1033 "/>
<text text-anchor="start" x="8" y="-1021" font-family="Helvetica,sans-Serif" font-size="10.00">ACTIVITY_NAME</text>
<polyline fill="none" stroke="black" points="0,-1014 210,-1014 "/>
<text text-anchor="start" x="8" y="-1002" font-family="Helvetica,sans-Serif" font-size="10.00">CODE</text>
<polyline fill="none" stroke="black" points="0,-995 210,-995 "/>
<text text-anchor="start" x="8" y="-983" font-family="Helvetica,sans-Serif" font-size="10.00">CREATED_DATE</text>
<polyline fill="none" stroke="black" points="0,-976 210,-976 "/>
<text text-anchor="start" x="8" y="-964" font-family="Helvetica,sans-Serif" font-size="10.00">ORDER_NUMBER</text>
<polyline fill="none" stroke="black" points="0,-957 210,-957 "/>
<text text-anchor="start" x="8" y="-945" font-family="Helvetica,sans-Serif" font-size="10.00">PROCESS</text>
<polyline fill="none" stroke="black" points="0,-938 210,-938 "/>
<text text-anchor="start" x="8" y="-926" font-family="Helvetica,sans-Serif" font-size="10.00">STATUS</text>
<polyline fill="none" stroke="black" points="0,-919 210,-919 "/>
<text text-anchor="start" x="8" y="-907" font-family="Helvetica,sans-Serif" font-size="10.00">DOCUMENT_ACTIVITIES_DOCUMENT_0</text>
</g>
<!-- DOCUMENT_ACTIVITY_DATA&#45;&gt;DOCUMENT_ACTIVITY_CONTAINER -->
<g id="edge1" class="edge"><title>DOCUMENT_ACTIVITY_DATA:se&#45;&gt;DOCUMENT_ACTIVITY_CONTAINER:nw</title>
<path fill="none" stroke="lightgrey" d="M210,-898.5C308.905,-799.595 164.023,-686.547 251.025,-586.951"/>
<polygon fill="lightgrey" stroke="lightgrey" points="253.722,-589.193 258,-579.5 248.611,-584.409 253.722,-589.193"/>
<text text-anchor="middle" x="296.5" y="-770.6" font-family="Helvetica,sans-Serif" font-size="8.00">FK1djmtx4rrenfrny0h9kbk6dkr</text>
</g>
<!-- DOCUMENT_ATTACHMENT -->
<g id="node3" class="node"><title>DOCUMENT_ATTACHMENT</title>
<polygon fill="yellow" stroke="black" points="228,-919 228,-1052 442,-1052 442,-919 228,-919"/>
<text text-anchor="middle" x="335" y="-1040" font-family="Helvetica,sans-Serif" font-size="10.00">DOCUMENT_ATTACHMENT</text>
<polyline fill="none" stroke="black" points="228,-1033 442,-1033 "/>
<text text-anchor="start" x="236" y="-1021" font-family="Helvetica,sans-Serif" font-size="10.00">HJID</text>
<polyline fill="none" stroke="black" points="228,-1014 442,-1014 "/>
<text text-anchor="start" x="236" y="-1002" font-family="Helvetica,sans-Serif" font-size="10.00">FILE_NAME</text>
<polyline fill="none" stroke="black" points="228,-995 442,-995 "/>
<text text-anchor="start" x="236" y="-983" font-family="Helvetica,sans-Serif" font-size="10.00">FILE_SIZE</text>
<polyline fill="none" stroke="black" points="228,-976 442,-976 "/>
<text text-anchor="start" x="236" y="-964" font-family="Helvetica,sans-Serif" font-size="10.00">FILE_TYPE</text>
<polyline fill="none" stroke="black" points="228,-957 442,-957 "/>
<text text-anchor="start" x="236" y="-945" font-family="Helvetica,sans-Serif" font-size="10.00">FILE_URL</text>
<polyline fill="none" stroke="black" points="228,-938 442,-938 "/>
<text text-anchor="start" x="236" y="-926" font-family="Helvetica,sans-Serif" font-size="10.00">DOCUMENT_ATTACHMENT_LIST_DOC_0</text>
</g>
<!-- DOCUMENT_ATTACHMENT_CONTAINER -->
<g id="node4" class="node"><title>DOCUMENT_ATTACHMENT_CONTAINER</title>
<polygon fill="yellow" stroke="black" points="562.5,-540.5 562.5,-578.5 777.5,-578.5 777.5,-540.5 562.5,-540.5"/>
<text text-anchor="middle" x="670" y="-566.5" font-family="Helvetica,sans-Serif" font-size="10.00">DOCUMENT_ATTACHMENT_CONTAINER</text>
<polyline fill="none" stroke="black" points="562.5,-559.5 777.5,-559.5 "/>
<text text-anchor="start" x="570.5" y="-547.5" font-family="Helvetica,sans-Serif" font-size="10.00">HJID</text>
</g>
<!-- DOCUMENT_ATTACHMENT&#45;&gt;DOCUMENT_ATTACHMENT_CONTAINER -->
<g id="edge2" class="edge"><title>DOCUMENT_ATTACHMENT:se&#45;&gt;DOCUMENT_ATTACHMENT_CONTAINER:nw</title>
<path fill="none" stroke="lightgrey" d="M442,-917.5C488.984,-870.516 420.171,-830.401 443,-768 446.578,-758.22 451.939,-758.468 458,-750 507.645,-680.641 499.955,-645.098 554.972,-586.734"/>
<polygon fill="lightgrey" stroke="lightgrey" points="557.542,-589.111 562,-579.5 552.521,-584.234 557.542,-589.111"/>
<text text-anchor="middle" x="496" y="-770.6" font-family="Helvetica,sans-Serif" font-size="8.00">FK5iwv5bkvf22potj0srhjexed7</text>
</g>
<!-- DOCUMENT_DATA -->
<g id="node5" class="node"><title>DOCUMENT_DATA</title>
<polygon fill="yellow" stroke="black" points="844,-369.5 844,-749.5 1024,-749.5 1024,-369.5 844,-369.5"/>
<text text-anchor="middle" x="934" y="-737.5" font-family="Helvetica,sans-Serif" font-size="10.00">DOCUMENT_DATA</text>
<polyline fill="none" stroke="black" points="844,-730.5 1024,-730.5 "/>
<text text-anchor="start" x="852" y="-718.5" font-family="Helvetica,sans-Serif" font-size="10.00">ID</text>
<polyline fill="none" stroke="black" points="844,-711.5 1024,-711.5 "/>
<text text-anchor="start" x="852" y="-699.5" font-family="Helvetica,sans-Serif" font-size="10.00">COMMITTEE_REPORT_URL_XML</text>
<polyline fill="none" stroke="black" points="844,-692.5 1024,-692.5 "/>
<text text-anchor="start" x="852" y="-680.5" font-family="Helvetica,sans-Serif" font-size="10.00">DOCUMENT_STATUS_URL_WWW</text>
<polyline fill="none" stroke="black" points="844,-673.5 1024,-673.5 "/>
<text text-anchor="start" x="852" y="-661.5" font-family="Helvetica,sans-Serif" font-size="10.00">DOCUMENT_STATUS_URL_XML</text>
<polyline fill="none" stroke="black" points="844,-654.5 1024,-654.5 "/>
<text text-anchor="start" x="852" y="-642.5" font-family="Helvetica,sans-Serif" font-size="10.00">DOCUMENT_TYPE</text>
<polyline fill="none" stroke="black" points="844,-635.5 1024,-635.5 "/>
<text text-anchor="start" x="852" y="-623.5" font-family="Helvetica,sans-Serif" font-size="10.00">DOCUMENT_URL_HTML</text>
<polyline fill="none" stroke="black" points="844,-616.5 1024,-616.5 "/>
<text text-anchor="start" x="852" y="-604.5" font-family="Helvetica,sans-Serif" font-size="10.00">DOCUMENT_URL_TEXT</text>
<polyline fill="none" stroke="black" points="844,-597.5 1024,-597.5 "/>
<text text-anchor="start" x="852" y="-585.5" font-family="Helvetica,sans-Serif" font-size="10.00">FINAL_NUMBER</text>
<polyline fill="none" stroke="black" points="844,-578.5 1024,-578.5 "/>
<text text-anchor="start" x="852" y="-566.5" font-family="Helvetica,sans-Serif" font-size="10.00">HANGAR_ID</text>
<polyline fill="none" stroke="black" points="844,-559.5 1024,-559.5 "/>
<text text-anchor="start" x="852" y="-547.5" font-family="Helvetica,sans-Serif" font-size="10.00">LABEL</text>
<polyline fill="none" stroke="black" points="844,-540.5 1024,-540.5 "/>
<text text-anchor="start" x="852" y="-528.5" font-family="Helvetica,sans-Serif" font-size="10.00">MADE_PUBLIC_DATE</text>
<polyline fill="none" stroke="black" points="844,-521.5 1024,-521.5 "/>
<text text-anchor="start" x="852" y="-509.5" font-family="Helvetica,sans-Serif" font-size="10.00">NUMBER_VALUE</text>
<polyline fill="none" stroke="black" points="844,-502.5 1024,-502.5 "/>
<text text-anchor="start" x="852" y="-490.5" font-family="Helvetica,sans-Serif" font-size="10.00">ORG</text>
<polyline fill="none" stroke="black" points="844,-483.5 1024,-483.5 "/>
<text text-anchor="start" x="852" y="-471.5" font-family="Helvetica,sans-Serif" font-size="10.00">RM</text>
<polyline fill="none" stroke="black" points="844,-464.5 1024,-464.5 "/>
<text text-anchor="start" x="852" y="-452.5" font-family="Helvetica,sans-Serif" font-size="10.00">STATUS</text>
<polyline fill="none" stroke="black" points="844,-445.5 1024,-445.5 "/>
<text text-anchor="start" x="852" y="-433.5" font-family="Helvetica,sans-Serif" font-size="10.00">SUB_TITLE</text>
<polyline fill="none" stroke="black" points="844,-426.5 1024,-426.5 "/>
<text text-anchor="start" x="852" y="-414.5" font-family="Helvetica,sans-Serif" font-size="10.00">SUB_TYPE</text>
<polyline fill="none" stroke="black" points="844,-407.5 1024,-407.5 "/>
<text text-anchor="start" x="852" y="-395.5" font-family="Helvetica,sans-Serif" font-size="10.00">TEMP_LABEL</text>
<polyline fill="none" stroke="black" points="844,-388.5 1024,-388.5 "/>
<text text-anchor="start" x="852" y="-376.5" font-family="Helvetica,sans-Serif" font-size="10.00">TITLE</text>
</g>
<!-- DOCUMENT_DETAIL_CONTAINER -->
<g id="node6" class="node"><title>DOCUMENT_DETAIL_CONTAINER</title>
<polygon fill="yellow" stroke="black" points="1333.5,-540.5 1333.5,-578.5 1514.5,-578.5 1514.5,-540.5 1333.5,-540.5"/>
<text text-anchor="middle" x="1424" y="-566.5" font-family="Helvetica,sans-Serif" font-size="10.00">DOCUMENT_DETAIL_CONTAINER</text>
<polyline fill="none" stroke="black" points="1333.5,-559.5 1514.5,-559.5 "/>
<text text-anchor="start" x="1341.5" y="-547.5" font-family="Helvetica,sans-Serif" font-size="10.00">HJID</text>
</g>
<!-- DOCUMENT_DETAIL_DATA -->
<g id="node7" class="node"><title>DOCUMENT_DETAIL_DATA</title>
<polygon fill="yellow" stroke="black" points="1178,-928.5 1178,-1042.5 1388,-1042.5 1388,-928.5 1178,-928.5"/>
<text text-anchor="middle" x="1283" y="-1030.5" font-family="Helvetica,sans-Serif" font-size="10.00">DOCUMENT_DETAIL_DATA</text>
<polyline fill="none" stroke="black" points="1178,-1023.5 1388,-1023.5 "/>
<text text-anchor="start" x="1186" y="-1011.5" font-family="Helvetica,sans-Serif" font-size="10.00">HJID</text>
<polyline fill="none" stroke="black" points="1178,-1004.5 1388,-1004.5 "/>
<text text-anchor="start" x="1186" y="-992.5" font-family="Helvetica,sans-Serif" font-size="10.00">CODE</text>
<polyline fill="none" stroke="black" points="1178,-985.5 1388,-985.5 "/>
<text text-anchor="start" x="1186" y="-973.5" font-family="Helvetica,sans-Serif" font-size="10.00">DETAIL_NAME</text>
<polyline fill="none" stroke="black" points="1178,-966.5 1388,-966.5 "/>
<text text-anchor="start" x="1186" y="-954.5" font-family="Helvetica,sans-Serif" font-size="10.00">TEXT</text>
<polyline fill="none" stroke="black" points="1178,-947.5 1388,-947.5 "/>
<text text-anchor="start" x="1186" y="-935.5" font-family="Helvetica,sans-Serif" font-size="10.00">DOCUMENT_DETAIL_LIST_DOCUMEN_0</text>
</g>
<!-- DOCUMENT_DETAIL_DATA&#45;&gt;DOCUMENT_DETAIL_CONTAINER -->
<g id="edge3" class="edge"><title>DOCUMENT_DETAIL_DATA:se&#45;&gt;DOCUMENT_DETAIL_CONTAINER:nw</title>
<path fill="none" stroke="lightgrey" d="M1388,-927.5C1496.24,-819.264 1234.5,-695.9 1326.12,-586.984"/>
<polygon fill="lightgrey" stroke="lightgrey" points="1328.81,-589.23 1333,-579.5 1323.65,-584.491 1328.81,-589.23"/>
<text text-anchor="middle" x="1433" y="-770.6" font-family="Helvetica,sans-Serif" font-size="8.00">FK5d2u7md3uvfwsieccdas9rula</text>
</g>
<!-- DOCUMENT_PERSON_REFERENCE_CO_0 -->
<g id="node8" class="node"><title>DOCUMENT_PERSON_REFERENCE_CO_0</title>
<polygon fill="yellow" stroke="black" points="1860,-540.5 1860,-578.5 2082,-578.5 2082,-540.5 1860,-540.5"/>
<text text-anchor="middle" x="1971" y="-566.5" font-family="Helvetica,sans-Serif" font-size="10.00">DOCUMENT_PERSON_REFERENCE_CO_0</text>
<polyline fill="none" stroke="black" points="1860,-559.5 2082,-559.5 "/>
<text text-anchor="start" x="1868" y="-547.5" font-family="Helvetica,sans-Serif" font-size="10.00">HJID</text>
</g>
<!-- DOCUMENT_PERSON_REFERENCE_DA_0 -->
<g id="node9" class="node"><title>DOCUMENT_PERSON_REFERENCE_DA_0</title>
<polygon fill="yellow" stroke="black" points="1676.5,-909.5 1676.5,-1061.5 1897.5,-1061.5 1897.5,-909.5 1676.5,-909.5"/>
<text text-anchor="middle" x="1787" y="-1049.5" font-family="Helvetica,sans-Serif" font-size="10.00">DOCUMENT_PERSON_REFERENCE_DA_0</text>
<polyline fill="none" stroke="black" points="1676.5,-1042.5 1897.5,-1042.5 "/>
<text text-anchor="start" x="1684.5" y="-1030.5" font-family="Helvetica,sans-Serif" font-size="10.00">HJID</text>
<polyline fill="none" stroke="black" points="1676.5,-1023.5 1897.5,-1023.5 "/>
<text text-anchor="start" x="1684.5" y="-1011.5" font-family="Helvetica,sans-Serif" font-size="10.00">ORDER_NUMBER</text>
<polyline fill="none" stroke="black" points="1676.5,-1004.5 1897.5,-1004.5 "/>
<text text-anchor="start" x="1684.5" y="-992.5" font-family="Helvetica,sans-Serif" font-size="10.00">PARTY_SHORT_CODE</text>
<polyline fill="none" stroke="black" points="1676.5,-985.5 1897.5,-985.5 "/>
<text text-anchor="start" x="1684.5" y="-973.5" font-family="Helvetica,sans-Serif" font-size="10.00">PERSON_REFERENCE_ID</text>
<polyline fill="none" stroke="black" points="1676.5,-966.5 1897.5,-966.5 "/>
<text text-anchor="start" x="1684.5" y="-954.5" font-family="Helvetica,sans-Serif" font-size="10.00">REFERENCE_NAME</text>
<polyline fill="none" stroke="black" points="1676.5,-947.5 1897.5,-947.5 "/>
<text text-anchor="start" x="1684.5" y="-935.5" font-family="Helvetica,sans-Serif" font-size="10.00">ROLE_DESCRIPTION</text>
<polyline fill="none" stroke="black" points="1676.5,-928.5 1897.5,-928.5 "/>
<text text-anchor="start" x="1684.5" y="-916.5" font-family="Helvetica,sans-Serif" font-size="10.00">DOCUMENT_PERSON_REFERENCE_LI_1</text>
</g>
<!-- DOCUMENT_PERSON_REFERENCE_DA_0&#45;&gt;DOCUMENT_PERSON_REFERENCE_CO_0 -->
<g id="edge4" class="edge"><title>DOCUMENT_PERSON_REFERENCE_DA_0:se&#45;&gt;DOCUMENT_PERSON_REFERENCE_CO_0:nw</title>
<path fill="none" stroke="lightgrey" d="M1898,-908.5C1999.54,-806.959 1767.73,-689.472 1852.99,-587.153"/>
<polygon fill="lightgrey" stroke="lightgrey" points="1855.83,-589.239 1860,-579.5 1850.67,-584.512 1855.83,-589.239"/>
<text text-anchor="middle" x="1952.5" y="-770.6" font-family="Helvetica,sans-Serif" font-size="8.00">FK87lvy7dvkl9xcn99ggrxmqeeb</text>
</g>
<!-- DOCUMENT_PROPOSAL_CONTAINER -->
<g id="node10" class="node"><title>DOCUMENT_PROPOSAL_CONTAINER</title>
<polygon fill="yellow" stroke="black" points="1042,-531 1042,-588 1260,-588 1260,-531 1042,-531"/>
<text text-anchor="middle" x="1151" y="-576" font-family="Helvetica,sans-Serif" font-size="10.00">DOCUMENT_PROPOSAL_CONTAINER</text>
<polyline fill="none" stroke="black" points="1042,-569 1260,-569 "/>
<text text-anchor="start" x="1050" y="-557" font-family="Helvetica,sans-Serif" font-size="10.00">HJID</text>
<polyline fill="none" stroke="black" points="1042,-550 1260,-550 "/>
<text text-anchor="start" x="1050" y="-538" font-family="Helvetica,sans-Serif" font-size="10.00">PROPOSAL_DOCUMENT_PROPOSAL_C_0</text>
</g>
<!-- DOCUMENT_PROPOSAL_DATA -->
<g id="node11" class="node"><title>DOCUMENT_PROPOSAL_DATA</title>
<polygon fill="yellow" stroke="black" points="1260.5,-19.5 1260.5,-247.5 1427.5,-247.5 1427.5,-19.5 1260.5,-19.5"/>
<text text-anchor="middle" x="1344" y="-235.5" font-family="Helvetica,sans-Serif" font-size="10.00">DOCUMENT_PROPOSAL_DATA</text>
<polyline fill="none" stroke="black" points="1260.5,-228.5 1427.5,-228.5 "/>
<text text-anchor="start" x="1268.5" y="-216.5" font-family="Helvetica,sans-Serif" font-size="10.00">HJID</text>
<polyline fill="none" stroke="black" points="1260.5,-209.5 1427.5,-209.5 "/>
<text text-anchor="start" x="1268.5" y="-197.5" font-family="Helvetica,sans-Serif" font-size="10.00">CHAMBER</text>
<polyline fill="none" stroke="black" points="1260.5,-190.5 1427.5,-190.5 "/>
<text text-anchor="start" x="1268.5" y="-178.5" font-family="Helvetica,sans-Serif" font-size="10.00">COMMITTEE</text>
<polyline fill="none" stroke="black" points="1260.5,-171.5 1427.5,-171.5 "/>
<text text-anchor="start" x="1268.5" y="-159.5" font-family="Helvetica,sans-Serif" font-size="10.00">DECISION_TYPE</text>
<polyline fill="none" stroke="black" points="1260.5,-152.5 1427.5,-152.5 "/>
<text text-anchor="start" x="1268.5" y="-140.5" font-family="Helvetica,sans-Serif" font-size="10.00">DESIGNATION</text>
<polyline fill="none" stroke="black" points="1260.5,-133.5 1427.5,-133.5 "/>
<text text-anchor="start" x="1268.5" y="-121.5" font-family="Helvetica,sans-Serif" font-size="10.00">PROCESSED_IN</text>
<polyline fill="none" stroke="black" points="1260.5,-114.5 1427.5,-114.5 "/>
<text text-anchor="start" x="1268.5" y="-102.5" font-family="Helvetica,sans-Serif" font-size="10.00">PROPOSAL_NUMBER</text>
<polyline fill="none" stroke="black" points="1260.5,-95.5 1427.5,-95.5 "/>
<text text-anchor="start" x="1268.5" y="-83.5" font-family="Helvetica,sans-Serif" font-size="10.00">WORDING</text>
<polyline fill="none" stroke="black" points="1260.5,-76.5 1427.5,-76.5 "/>
<text text-anchor="start" x="1268.5" y="-64.5" font-family="Helvetica,sans-Serif" font-size="10.00">WORDING_2</text>
<polyline fill="none" stroke="black" points="1260.5,-57.5 1427.5,-57.5 "/>
<text text-anchor="start" x="1268.5" y="-45.5" font-family="Helvetica,sans-Serif" font-size="10.00">WORDING_3</text>
<polyline fill="none" stroke="black" points="1260.5,-38.5 1427.5,-38.5 "/>
<text text-anchor="start" x="1268.5" y="-26.5" font-family="Helvetica,sans-Serif" font-size="10.00">WORDING_4</text>
</g>
<!-- DOCUMENT_PROPOSAL_CONTAINER&#45;&gt;DOCUMENT_PROPOSAL_DATA -->
<g id="edge5" class="edge"><title>DOCUMENT_PROPOSAL_CONTAINER:se&#45;&gt;DOCUMENT_PROPOSAL_DATA:nw</title>
<path fill="none" stroke="lightgrey" d="M1260,-529.5C1345.96,-443.538 1181.34,-342.377 1253.11,-255.554"/>
<polygon fill="lightgrey" stroke="lightgrey" points="1255.85,-257.747 1260,-248 1250.68,-253.03 1255.85,-257.747"/>
<text text-anchor="middle" x="1303" y="-344.6" font-family="Helvetica,sans-Serif" font-size="8.00">FKkph1xtgow9mxw087oyivipwmc</text>
</g>
<!-- DOCUMENT_REFERENCE_CONTAINER -->
<g id="node12" class="node"><title>DOCUMENT_REFERENCE_CONTAINER</title>
<polygon fill="yellow" stroke="black" points="1595.5,-540.5 1595.5,-578.5 1804.5,-578.5 1804.5,-540.5 1595.5,-540.5"/>
<text text-anchor="middle" x="1700" y="-566.5" font-family="Helvetica,sans-Serif" font-size="10.00">DOCUMENT_REFERENCE_CONTAINER</text>
<polyline fill="none" stroke="black" points="1595.5,-559.5 1804.5,-559.5 "/>
<text text-anchor="start" x="1603.5" y="-547.5" font-family="Helvetica,sans-Serif" font-size="10.00">HJID</text>
</g>
<!-- DOCUMENT_REFERENCE_DATA -->
<g id="node13" class="node"><title>DOCUMENT_REFERENCE_DATA</title>
<polygon fill="yellow" stroke="black" points="1443.5,-928.5 1443.5,-1042.5 1658.5,-1042.5 1658.5,-928.5 1443.5,-928.5"/>
<text text-anchor="middle" x="1551" y="-1030.5" font-family="Helvetica,sans-Serif" font-size="10.00">DOCUMENT_REFERENCE_DATA</text>
<polyline fill="none" stroke="black" points="1443.5,-1023.5 1658.5,-1023.5 "/>
<text text-anchor="start" x="1451.5" y="-1011.5" font-family="Helvetica,sans-Serif" font-size="10.00">HJID</text>
<polyline fill="none" stroke="black" points="1443.5,-1004.5 1658.5,-1004.5 "/>
<text text-anchor="start" x="1451.5" y="-992.5" font-family="Helvetica,sans-Serif" font-size="10.00">DETAIL</text>
<polyline fill="none" stroke="black" points="1443.5,-985.5 1658.5,-985.5 "/>
<text text-anchor="start" x="1451.5" y="-973.5" font-family="Helvetica,sans-Serif" font-size="10.00">REFERENCE_DOCUMENT_ID</text>
<polyline fill="none" stroke="black" points="1443.5,-966.5 1658.5,-966.5 "/>
<text text-anchor="start" x="1451.5" y="-954.5" font-family="Helvetica,sans-Serif" font-size="10.00">REFERENCE_TYPE</text>
<polyline fill="none" stroke="black" points="1443.5,-947.5 1658.5,-947.5 "/>
<text text-anchor="start" x="1451.5" y="-935.5" font-family="Helvetica,sans-Serif" font-size="10.00">DOCUMENT_REFERENCE_LIST_DOCU_0</text>
</g>
<!-- DOCUMENT_REFERENCE_DATA&#45;&gt;DOCUMENT_REFERENCE_CONTAINER -->
<g id="edge6" class="edge"><title>DOCUMENT_REFERENCE_DATA:se&#45;&gt;DOCUMENT_REFERENCE_CONTAINER:nw</title>
<path fill="none" stroke="lightgrey" d="M1659,-927.5C1671.65,-914.85 1640.17,-785.607 1637,-768 1622.44,-687.156 1541.69,-643.992 1587.98,-587.232"/>
<polygon fill="lightgrey" stroke="lightgrey" points="1590.87,-589.256 1595,-579.5 1585.69,-584.551 1590.87,-589.256"/>
<text text-anchor="middle" x="1692.5" y="-770.6" font-family="Helvetica,sans-Serif" font-size="8.00">FK7oc5l5f0xva8cykmj3qhfy7yf</text>
</g>
<!-- DOCUMENT_STATUS_CONTAINER -->
<g id="node14" class="node"><title>DOCUMENT_STATUS_CONTAINER</title>
<polygon fill="yellow" stroke="black" points="761,-890.5 761,-1080.5 983,-1080.5 983,-890.5 761,-890.5"/>
<text text-anchor="middle" x="872" y="-1068.5" font-family="Helvetica,sans-Serif" font-size="10.00">DOCUMENT_STATUS_CONTAINER</text>
<polyline fill="none" stroke="black" points="761,-1061.5 983,-1061.5 "/>
<text text-anchor="start" x="769" y="-1049.5" font-family="Helvetica,sans-Serif" font-size="10.00">HJID</text>
<polyline fill="none" stroke="black" points="761,-1042.5 983,-1042.5 "/>
<text text-anchor="start" x="769" y="-1030.5" font-family="Helvetica,sans-Serif" font-size="10.00">DOCUMENT_CATEGORY</text>
<polyline fill="none" stroke="black" points="761,-1023.5 983,-1023.5 "/>
<text text-anchor="start" x="769" y="-1011.5" font-family="Helvetica,sans-Serif" font-size="10.00">DOCUMENT_DOCUMENT_STATUS_CON_0</text>
<polyline fill="none" stroke="black" points="761,-1004.5 983,-1004.5 "/>
<text text-anchor="start" x="769" y="-992.5" font-family="Helvetica,sans-Serif" font-size="10.00">DOCUMENT_ACTIVITY_CONTAINER__0</text>
<polyline fill="none" stroke="black" points="761,-985.5 983,-985.5 "/>
<text text-anchor="start" x="769" y="-973.5" font-family="Helvetica,sans-Serif" font-size="10.00">DOCUMENT_ATTACHMENT_CONTAINE_0</text>
<polyline fill="none" stroke="black" points="761,-966.5 983,-966.5 "/>
<text text-anchor="start" x="769" y="-954.5" font-family="Helvetica,sans-Serif" font-size="10.00">DOCUMENT_DETAIL_CONTAINER_DO_0</text>
<polyline fill="none" stroke="black" points="761,-947.5 983,-947.5 "/>
<text text-anchor="start" x="769" y="-935.5" font-family="Helvetica,sans-Serif" font-size="10.00">DOCUMENT_PERSON_REFERENCE_CO_1</text>
<polyline fill="none" stroke="black" points="761,-928.5 983,-928.5 "/>
<text text-anchor="start" x="769" y="-916.5" font-family="Helvetica,sans-Serif" font-size="10.00">DOCUMENT_PROPOSAL_DOCUMENT_S_0</text>
<polyline fill="none" stroke="black" points="761,-909.5 983,-909.5 "/>
<text text-anchor="start" x="769" y="-897.5" font-family="Helvetica,sans-Serif" font-size="10.00">DOCUMENT_REFERENCE_CONTAINER_0</text>
</g>
<!-- DOCUMENT_STATUS_CONTAINER&#45;&gt;DOCUMENT_ACTIVITY_CONTAINER -->
<g id="edge8" class="edge"><title>DOCUMENT_STATUS_CONTAINER:se&#45;&gt;DOCUMENT_ACTIVITY_CONTAINER:nw</title>
<path fill="none" stroke="lightgrey" d="M983,-890C1111.51,-761.488 756.803,-849.163 590,-777 435.655,-710.226 148.672,-701.254 251.052,-586.827"/>
<polygon fill="lightgrey" stroke="lightgrey" points="253.659,-589.165 258,-579.5 248.58,-584.349 253.659,-589.165"/>
<text text-anchor="middle" x="647.5" y="-770.6" font-family="Helvetica,sans-Serif" font-size="8.00">FKh5fo4co6a57ew8rr9wgqcief2</text>
</g>
<!-- DOCUMENT_STATUS_CONTAINER&#45;&gt;DOCUMENT_ATTACHMENT_CONTAINER -->
<g id="edge9" class="edge"><title>DOCUMENT_STATUS_CONTAINER:se&#45;&gt;DOCUMENT_ATTACHMENT_CONTAINER:nw</title>
<path fill="none" stroke="lightgrey" d="M983,-890C1073.25,-799.752 820.465,-854.422 719,-777 632.814,-711.237 492.417,-662.143 554.84,-587.304"/>
<polygon fill="lightgrey" stroke="lightgrey" points="557.818,-589.235 562,-579.5 552.66,-584.502 557.818,-589.235"/>
<text text-anchor="middle" x="775" y="-770.6" font-family="Helvetica,sans-Serif" font-size="8.00">FKq2woiirb89i1ddn40g6ykeadv</text>
</g>
<!-- DOCUMENT_STATUS_CONTAINER&#45;&gt;DOCUMENT_DATA -->
<g id="edge7" class="edge"><title>DOCUMENT_STATUS_CONTAINER:se&#45;&gt;DOCUMENT_DATA:nw</title>
<path fill="none" stroke="lightgrey" d="M983,-890C1042.22,-830.785 804.973,-813.531 837.553,-758.085"/>
<polygon fill="lightgrey" stroke="lightgrey" points="840.502,-760.001 844,-750 835.029,-755.637 840.502,-760.001"/>
<text text-anchor="middle" x="895" y="-770.6" font-family="Helvetica,sans-Serif" font-size="8.00">FKdngn78r4bwykagjiqhhp6ubhh</text>
</g>
<!-- DOCUMENT_STATUS_CONTAINER&#45;&gt;DOCUMENT_DETAIL_CONTAINER -->
<g id="edge10" class="edge"><title>DOCUMENT_STATUS_CONTAINER:se&#45;&gt;DOCUMENT_DETAIL_CONTAINER:nw</title>
<path fill="none" stroke="lightgrey" d="M983,-890C1043.28,-829.722 1052.8,-801.944 1131,-768 1187.74,-743.37 1220.55,-788.444 1269,-750 1329.68,-701.854 1280.41,-642.121 1326.23,-586.908"/>
<polygon fill="lightgrey" stroke="lightgrey" points="1328.84,-589.244 1333,-579.5 1323.67,-584.524 1328.84,-589.244"/>
<text text-anchor="middle" x="1182.5" y="-770.6" font-family="Helvetica,sans-Serif" font-size="8.00">FK6udp4rg5jv9l5hovt82jflps0</text>
</g>
<!-- DOCUMENT_STATUS_CONTAINER&#45;&gt;DOCUMENT_PERSON_REFERENCE_CO_0 -->
<g id="edge11" class="edge"><title>DOCUMENT_STATUS_CONTAINER:se&#45;&gt;DOCUMENT_PERSON_REFERENCE_CO_0:nw</title>
<path fill="none" stroke="lightgrey" d="M983,-890C1147.47,-725.529 1269.48,-837.766 1494,-777 1506.62,-773.585 1509.15,-770.422 1522,-768 1553.83,-761.997 1787.85,-770.415 1813,-750 1871.29,-702.69 1810.41,-640.924 1853.24,-587.047"/>
<polygon fill="lightgrey" stroke="lightgrey" points="1855.94,-589.285 1860,-579.5 1850.72,-584.617 1855.94,-589.285"/>
<text text-anchor="middle" x="1577.5" y="-770.6" font-family="Helvetica,sans-Serif" font-size="8.00">FKnt1uux73xnmsu4lqrhjqpkufb</text>
</g>
<!-- DOCUMENT_STATUS_CONTAINER&#45;&gt;DOCUMENT_PROPOSAL_CONTAINER -->
<g id="edge12" class="edge"><title>DOCUMENT_STATUS_CONTAINER:se&#45;&gt;DOCUMENT_PROPOSAL_CONTAINER:nw</title>
<path fill="none" stroke="lightgrey" d="M983,-890C1021.34,-851.658 952.783,-812.336 984,-768 997.357,-749.03 1019.19,-768.645 1033,-750 1042.34,-737.384 1032.46,-632.718 1038.5,-598.98"/>
<polygon fill="lightgrey" stroke="lightgrey" points="1041.82,-600.093 1042,-589.5 1035.26,-597.671 1041.82,-600.093"/>
<text text-anchor="middle" x="1046" y="-770.6" font-family="Helvetica,sans-Serif" font-size="8.00">FKnuew2mp3ibyamqnes86cbd276</text>
</g>
<!-- DOCUMENT_STATUS_CONTAINER&#45;&gt;DOCUMENT_REFERENCE_CONTAINER -->
<g id="edge13" class="edge"><title>DOCUMENT_STATUS_CONTAINER:se&#45;&gt;DOCUMENT_REFERENCE_CONTAINER:nw</title>
<path fill="none" stroke="lightgrey" d="M983,-890C1007,-866.004 1230.04,-776.067 1263,-768 1319.26,-754.232 1475.87,-783.659 1523,-750 1587.06,-704.248 1541.18,-643.179 1588.1,-587.031"/>
<polygon fill="lightgrey" stroke="lightgrey" points="1590.83,-589.238 1595,-579.5 1585.66,-584.509 1590.83,-589.238"/>
<text text-anchor="middle" x="1317.5" y="-770.6" font-family="Helvetica,sans-Serif" font-size="8.00">FKs8fdjp1q9tuy0ii64rwb4qqe3</text>
</g>
</g>
</svg>
