<?xml version="1.0" encoding="UTF-8" standalone="no"?>
<!DOCTYPE svg PUBLIC "-//W3C//DTD SVG 1.1//EN"
 "http://www.w3.org/Graphics/SVG/1.1/DTD/svg11.dtd">
<!-- Generated by graphviz version 2.38.0 (20140413.2041)
 -->
<!-- Title: TableGraph Pages: 1 -->
<svg width="520pt" height="416pt"
 viewBox="0.00 0.00 519.50 416.00" xmlns="http://www.w3.org/2000/svg" xmlns:xlink="http://www.w3.org/1999/xlink">
<g id="graph0" class="graph" transform="scale(1 1) rotate(0) translate(4 412)">
<title>TableGraph</title>
<g id="a_graph0"><a xlink:href="http://tools.hibernate.org" xlink:title="Table Graph">
<polygon fill="white" stroke="none" points="-4,4 -4,-412 515.5,-412 515.5,4 -4,4"/>
<text text-anchor="middle" x="255.75" y="-7" font-family="Helvetica,sans-Serif" font-size="10.00">Table Graph</text>
</a>
</g>
<!-- INDICATOR_ELEMENT -->
<g id="node1" class="node"><title>INDICATOR_ELEMENT</title>
<polygon fill="yellow" stroke="black" points="0,-217.5 0,-407.5 203,-407.5 203,-217.5 0,-217.5"/>
<text text-anchor="middle" x="101.5" y="-395.5" font-family="Helvetica,sans-Serif" font-size="10.00">INDICATOR_ELEMENT</text>
<polyline fill="none" stroke="black" points="0,-388.5 203,-388.5 "/>
<text text-anchor="start" x="8" y="-376.5" font-family="Helvetica,sans-Serif" font-size="10.00">HJID</text>
<polyline fill="none" stroke="black" points="0,-369.5 203,-369.5 "/>
<text text-anchor="start" x="8" y="-357.5" font-family="Helvetica,sans-Serif" font-size="10.00">ID</text>
<polyline fill="none" stroke="black" points="0,-350.5 203,-350.5 "/>
<text text-anchor="start" x="8" y="-338.5" font-family="Helvetica,sans-Serif" font-size="10.00">INDICATOR_NAME</text>
<polyline fill="none" stroke="black" points="0,-331.5 203,-331.5 "/>
<text text-anchor="start" x="8" y="-319.5" font-family="Helvetica,sans-Serif" font-size="10.00">SOURCE_ID</text>
<polyline fill="none" stroke="black" points="0,-312.5 203,-312.5 "/>
<text text-anchor="start" x="8" y="-300.5" font-family="Helvetica,sans-Serif" font-size="10.00">SOURCE_VALUE</text>
<polyline fill="none" stroke="black" points="0,-293.5 203,-293.5 "/>
<text text-anchor="start" x="8" y="-281.5" font-family="Helvetica,sans-Serif" font-size="10.00">SOURCE_NOTE</text>
<polyline fill="none" stroke="black" points="0,-274.5 203,-274.5 "/>
<text text-anchor="start" x="8" y="-262.5" font-family="Helvetica,sans-Serif" font-size="10.00">SOURCE_ORGANIZATION</text>
<polyline fill="none" stroke="black" points="0,-255.5 203,-255.5 "/>
<text text-anchor="start" x="8" y="-243.5" font-family="Helvetica,sans-Serif" font-size="10.00">TOPICS_INDICATOR_ELEMENT_HJID</text>
<polyline fill="none" stroke="black" points="0,-236.5 203,-236.5 "/>
<text text-anchor="start" x="8" y="-224.5" font-family="Helvetica,sans-Serif" font-size="10.00">INDICATOR__INDICATORS_ELEMEN_0</text>
</g>
<!-- TOPICS -->
<g id="node2" class="node"><title>TOPICS</title>
<polygon fill="yellow" stroke="black" points="346.5,-57.5 346.5,-95.5 400.5,-95.5 400.5,-57.5 346.5,-57.5"/>
<text text-anchor="middle" x="373.5" y="-83.5" font-family="Helvetica,sans-Serif" font-size="10.00">TOPICS</text>
<polyline fill="none" stroke="black" points="346.5,-76.5 400.5,-76.5 "/>
<text text-anchor="start" x="354.5" y="-64.5" font-family="Helvetica,sans-Serif" font-size="10.00">HJID</text>
</g>
<!-- INDICATOR_ELEMENT&#45;&gt;TOPICS -->
<g id="edge1" class="edge"><title>INDICATOR_ELEMENT:se&#45;&gt;TOPICS:nw</title>
<path fill="none" stroke="lightgrey" d="M203.5,-217C219.611,-200.889 232.581,-211.696 251.5,-199 300.053,-166.416 302.459,-143.266 339.218,-104.021"/>
<polygon fill="lightgrey" stroke="lightgrey" points="342.058,-106.119 346.5,-96.5 337.029,-101.25 342.058,-106.119"/>
<text text-anchor="middle" x="318.5" y="-192.6" font-family="Helvetica,sans-Serif" font-size="8.00">FKqo83tlolpfpvu6ggml3648437</text>
</g>
<!-- INDICATORS_ELEMENT -->
<g id="node3" class="node"><title>INDICATORS_ELEMENT</title>
<polygon fill="yellow" stroke="black" points="135.5,-19.5 135.5,-133.5 267.5,-133.5 267.5,-19.5 135.5,-19.5"/>
<text text-anchor="middle" x="201.5" y="-121.5" font-family="Helvetica,sans-Serif" font-size="10.00">INDICATORS_ELEMENT</text>
<polyline fill="none" stroke="black" points="135.5,-114.5 267.5,-114.5 "/>
<text text-anchor="start" x="143.5" y="-102.5" font-family="Helvetica,sans-Serif" font-size="10.00">HJID</text>
<polyline fill="none" stroke="black" points="135.5,-95.5 267.5,-95.5 "/>
<text text-anchor="start" x="143.5" y="-83.5" font-family="Helvetica,sans-Serif" font-size="10.00">PAGE</text>
<polyline fill="none" stroke="black" points="135.5,-76.5 267.5,-76.5 "/>
<text text-anchor="start" x="143.5" y="-64.5" font-family="Helvetica,sans-Serif" font-size="10.00">PAGES</text>
<polyline fill="none" stroke="black" points="135.5,-57.5 267.5,-57.5 "/>
<text text-anchor="start" x="143.5" y="-45.5" font-family="Helvetica,sans-Serif" font-size="10.00">PER_PAGE</text>
<polyline fill="none" stroke="black" points="135.5,-38.5 267.5,-38.5 "/>
<text text-anchor="start" x="143.5" y="-26.5" font-family="Helvetica,sans-Serif" font-size="10.00">TOTAL</text>
</g>
<!-- INDICATOR_ELEMENT&#45;&gt;INDICATORS_ELEMENT -->
<g id="edge2" class="edge"><title>INDICATOR_ELEMENT:se&#45;&gt;INDICATORS_ELEMENT:nw</title>
<path fill="none" stroke="lightgrey" d="M203.5,-217C225.303,-195.197 155.45,-223.323 136.5,-199 120.963,-179.057 116.208,-159.89 128.949,-141.724"/>
<polygon fill="lightgrey" stroke="lightgrey" points="131.701,-143.89 135.5,-134 126.362,-139.362 131.701,-143.89"/>
<text text-anchor="middle" x="194" y="-192.6" font-family="Helvetica,sans-Serif" font-size="8.00">FKjajuw0y63aarlsdcb8gn9medq</text>
</g>
<!-- TOPIC -->
<g id="node4" class="node"><title>TOPIC</title>
<polygon fill="yellow" stroke="black" points="289,-265 289,-360 408,-360 408,-265 289,-265"/>
<text text-anchor="middle" x="348.5" y="-348" font-family="Helvetica,sans-Serif" font-size="10.00">TOPIC</text>
<polyline fill="none" stroke="black" points="289,-341 408,-341 "/>
<text text-anchor="start" x="297" y="-329" font-family="Helvetica,sans-Serif" font-size="10.00">HJID</text>
<polyline fill="none" stroke="black" points="289,-322 408,-322 "/>
<text text-anchor="start" x="297" y="-310" font-family="Helvetica,sans-Serif" font-size="10.00">ID</text>
<polyline fill="none" stroke="black" points="289,-303 408,-303 "/>
<text text-anchor="start" x="297" y="-291" font-family="Helvetica,sans-Serif" font-size="10.00">VALUE_</text>
<polyline fill="none" stroke="black" points="289,-284 408,-284 "/>
<text text-anchor="start" x="297" y="-272" font-family="Helvetica,sans-Serif" font-size="10.00">TOPIC_TOPICS_HJID</text>
</g>
<!-- TOPIC&#45;&gt;TOPICS -->
<g id="edge3" class="edge"><title>TOPIC:se&#45;&gt;TOPICS:nw</title>
<path fill="none" stroke="lightgrey" d="M408.5,-263.5C461.859,-210.141 306.321,-157.645 340.096,-104.367"/>
<polygon fill="lightgrey" stroke="lightgrey" points="342.901,-106.465 346.5,-96.5 337.472,-102.045 342.901,-106.465"/>
<text text-anchor="middle" x="453" y="-192.6" font-family="Helvetica,sans-Serif" font-size="8.00">FK1smjtptx0bfyq3m2w8hv28669</text>
</g>
</g>
</svg>
