<?xml version="1.0" encoding="UTF-8" standalone="no"?>
<!DOCTYPE svg PUBLIC "-//W3C//DTD SVG 1.1//EN"
 "http://www.w3.org/Graphics/SVG/1.1/DTD/svg11.dtd">
<!-- Generated by graphviz version 2.38.0 (20140413.2041)
 -->
<!-- Title: TableGraph Pages: 1 -->
<svg width="294pt" height="388pt"
 viewBox="0.00 0.00 294.00 387.50" xmlns="http://www.w3.org/2000/svg" xmlns:xlink="http://www.w3.org/1999/xlink">
<g id="graph0" class="graph" transform="scale(1 1) rotate(0) translate(4 383.5)">
<title>TableGraph</title>
<g id="a_graph0"><a xlink:href="http://tools.hibernate.org" xlink:title="Table Graph">
<polygon fill="white" stroke="none" points="-4,4 -4,-383.5 290,-383.5 290,4 -4,4"/>
<text text-anchor="middle" x="143" y="-7" font-family="Helvetica,sans-Serif" font-size="10.00">Table Graph</text>
</a>
</g>
<!-- DATA_ELEMENT -->
<g id="node1" class="node"><title>DATA_ELEMENT</title>
<polygon fill="yellow" stroke="black" points="162,-19.5 162,-133.5 258,-133.5 258,-19.5 162,-19.5"/>
<text text-anchor="middle" x="210" y="-121.5" font-family="Helvetica,sans-Serif" font-size="10.00">DATA_ELEMENT</text>
<polyline fill="none" stroke="black" points="162,-114.5 258,-114.5 "/>
<text text-anchor="start" x="170" y="-102.5" font-family="Helvetica,sans-Serif" font-size="10.00">HJID</text>
<polyline fill="none" stroke="black" points="162,-95.5 258,-95.5 "/>
<text text-anchor="start" x="170" y="-83.5" font-family="Helvetica,sans-Serif" font-size="10.00">PAGE</text>
<polyline fill="none" stroke="black" points="162,-76.5 258,-76.5 "/>
<text text-anchor="start" x="170" y="-64.5" font-family="Helvetica,sans-Serif" font-size="10.00">PAGES</text>
<polyline fill="none" stroke="black" points="162,-57.5 258,-57.5 "/>
<text text-anchor="start" x="170" y="-45.5" font-family="Helvetica,sans-Serif" font-size="10.00">PER_PAGE</text>
<polyline fill="none" stroke="black" points="162,-38.5 258,-38.5 "/>
<text text-anchor="start" x="170" y="-26.5" font-family="Helvetica,sans-Serif" font-size="10.00">TOTAL</text>
</g>
<!-- WORLD_BANK_DATA -->
<g id="node2" class="node"><title>WORLD_BANK_DATA</title>
<polygon fill="yellow" stroke="black" points="0,-208 0,-379 162,-379 162,-208 0,-208"/>
<text text-anchor="middle" x="81" y="-367" font-family="Helvetica,sans-Serif" font-size="10.00">WORLD_BANK_DATA</text>
<polyline fill="none" stroke="black" points="0,-360 162,-360 "/>
<text text-anchor="start" x="8" y="-348" font-family="Helvetica,sans-Serif" font-size="10.00">HJID</text>
<polyline fill="none" stroke="black" points="0,-341 162,-341 "/>
<text text-anchor="start" x="8" y="-329" font-family="Helvetica,sans-Serif" font-size="10.00">COUNTRY_ID</text>
<polyline fill="none" stroke="black" points="0,-322 162,-322 "/>
<text text-anchor="start" x="8" y="-310" font-family="Helvetica,sans-Serif" font-size="10.00">COUNTRY_VALUE</text>
<polyline fill="none" stroke="black" points="0,-303 162,-303 "/>
<text text-anchor="start" x="8" y="-291" font-family="Helvetica,sans-Serif" font-size="10.00">DATA_VALUE</text>
<polyline fill="none" stroke="black" points="0,-284 162,-284 "/>
<text text-anchor="start" x="8" y="-272" font-family="Helvetica,sans-Serif" font-size="10.00">INDICATOR_ID</text>
<polyline fill="none" stroke="black" points="0,-265 162,-265 "/>
<text text-anchor="start" x="8" y="-253" font-family="Helvetica,sans-Serif" font-size="10.00">INDICATOR_VALUE</text>
<polyline fill="none" stroke="black" points="0,-246 162,-246 "/>
<text text-anchor="start" x="8" y="-234" font-family="Helvetica,sans-Serif" font-size="10.00">YEAR_DATE</text>
<polyline fill="none" stroke="black" points="0,-227 162,-227 "/>
<text text-anchor="start" x="8" y="-215" font-family="Helvetica,sans-Serif" font-size="10.00">DATA__DATA_ELEMENT_HJID</text>
</g>
<!-- WORLD_BANK_DATA&#45;&gt;DATA_ELEMENT -->
<g id="edge1" class="edge"><title>WORLD_BANK_DATA:se&#45;&gt;DATA_ELEMENT:nw</title>
<path fill="none" stroke="lightgrey" d="M162,-207.5C182.302,-187.198 149.074,-163.649 156.411,-142.561"/>
<polygon fill="lightgrey" stroke="lightgrey" points="159.464,-144.287 162,-134 153.603,-140.46 159.464,-144.287"/>
<text text-anchor="middle" x="227" y="-183.1" font-family="Helvetica,sans-Serif" font-size="8.00">FKgc6x6nd8empgc0lilevbmm79q</text>
</g>
</g>
</svg>
