<?xml version="1.0" encoding="UTF-8" standalone="no"?>
<!DOCTYPE svg PUBLIC "-//W3C//DTD SVG 1.1//EN"
 "http://www.w3.org/Graphics/SVG/1.1/DTD/svg11.dtd">
<!-- Generated by graphviz version 2.38.0 (20140413.2041)
 -->
<!-- Title: TableGraph Pages: 1 -->
<svg width="984pt" height="1032pt"
 viewBox="0.00 0.00 983.50 1032.00" xmlns="http://www.w3.org/2000/svg" xmlns:xlink="http://www.w3.org/1999/xlink">
<g id="graph0" class="graph" transform="scale(1 1) rotate(0) translate(4 1028)">
<title>TableGraph</title>
<g id="a_graph0"><a xlink:href="http://tools.hibernate.org" xlink:title="Table Graph">
<polygon fill="white" stroke="none" points="-4,4 -4,-1028 979.5,-1028 979.5,4 -4,4"/>
<text text-anchor="middle" x="487.75" y="-7" font-family="Helvetica,sans-Serif" font-size="10.00">Table Graph</text>
</a>
</g>
<!-- ASSIGNMENT_ELEMENT -->
<g id="node1" class="node"><title>ASSIGNMENT_ELEMENT</title>
<polygon fill="yellow" stroke="black" points="0,-738.5 0,-966.5 215,-966.5 215,-738.5 0,-738.5"/>
<text text-anchor="middle" x="107.5" y="-954.5" font-family="Helvetica,sans-Serif" font-size="10.00">ASSIGNMENT_ELEMENT</text>
<polyline fill="none" stroke="black" points="0,-947.5 215,-947.5 "/>
<text text-anchor="start" x="8" y="-935.5" font-family="Helvetica,sans-Serif" font-size="10.00">HJID</text>
<polyline fill="none" stroke="black" points="0,-928.5 215,-928.5 "/>
<text text-anchor="start" x="8" y="-916.5" font-family="Helvetica,sans-Serif" font-size="10.00">ASSIGNMENT_TYPE</text>
<polyline fill="none" stroke="black" points="0,-909.5 215,-909.5 "/>
<text text-anchor="start" x="8" y="-897.5" font-family="Helvetica,sans-Serif" font-size="10.00">DETAIL</text>
<polyline fill="none" stroke="black" points="0,-890.5 215,-890.5 "/>
<text text-anchor="start" x="8" y="-878.5" font-family="Helvetica,sans-Serif" font-size="10.00">FROM_DATE</text>
<polyline fill="none" stroke="black" points="0,-871.5 215,-871.5 "/>
<text text-anchor="start" x="8" y="-859.5" font-family="Helvetica,sans-Serif" font-size="10.00">INTRESSENT_ID</text>
<polyline fill="none" stroke="black" points="0,-852.5 215,-852.5 "/>
<text text-anchor="start" x="8" y="-840.5" font-family="Helvetica,sans-Serif" font-size="10.00">ORDER_NUMBER</text>
<polyline fill="none" stroke="black" points="0,-833.5 215,-833.5 "/>
<text text-anchor="start" x="8" y="-821.5" font-family="Helvetica,sans-Serif" font-size="10.00">ORG_CODE</text>
<polyline fill="none" stroke="black" points="0,-814.5 215,-814.5 "/>
<text text-anchor="start" x="8" y="-802.5" font-family="Helvetica,sans-Serif" font-size="10.00">ROLE_CODE</text>
<polyline fill="none" stroke="black" points="0,-795.5 215,-795.5 "/>
<text text-anchor="start" x="8" y="-783.5" font-family="Helvetica,sans-Serif" font-size="10.00">STATUS</text>
<polyline fill="none" stroke="black" points="0,-776.5 215,-776.5 "/>
<text text-anchor="start" x="8" y="-764.5" font-family="Helvetica,sans-Serif" font-size="10.00">TO_DATE</text>
<polyline fill="none" stroke="black" points="0,-757.5 215,-757.5 "/>
<text text-anchor="start" x="8" y="-745.5" font-family="Helvetica,sans-Serif" font-size="10.00">UPPDRAG_PERSON_ASSIGNMENT_EL_0</text>
</g>
<!-- PERSON_ASSIGNMENT_ELEMENT -->
<g id="node2" class="node"><title>PERSON_ASSIGNMENT_ELEMENT</title>
<polygon fill="yellow" stroke="black" points="247.5,-445.5 247.5,-483.5 431.5,-483.5 431.5,-445.5 247.5,-445.5"/>
<text text-anchor="middle" x="339.5" y="-471.5" font-family="Helvetica,sans-Serif" font-size="10.00">PERSON_ASSIGNMENT_ELEMENT</text>
<polyline fill="none" stroke="black" points="247.5,-464.5 431.5,-464.5 "/>
<text text-anchor="start" x="255.5" y="-452.5" font-family="Helvetica,sans-Serif" font-size="10.00">HJID</text>
</g>
<!-- ASSIGNMENT_ELEMENT&#45;&gt;PERSON_ASSIGNMENT_ELEMENT -->
<g id="edge1" class="edge"><title>ASSIGNMENT_ELEMENT:se&#45;&gt;PERSON_ASSIGNMENT_ELEMENT:nw</title>
<path fill="none" stroke="lightgrey" d="M215.5,-737.5C217.716,-735.284 239.1,-540.899 245.734,-494.394"/>
<polygon fill="lightgrey" stroke="lightgrey" points="249.188,-494.96 247.5,-484.5 242.297,-493.729 249.188,-494.96"/>
<text text-anchor="middle" x="280" y="-656.6" font-family="Helvetica,sans-Serif" font-size="8.00">FK8egqg9aadqnijh6hluireipd0</text>
</g>
<!-- DETAIL_ELEMENT -->
<g id="node3" class="node"><title>DETAIL_ELEMENT</title>
<polygon fill="yellow" stroke="black" points="871.5,-19.5 871.5,-133.5 975.5,-133.5 975.5,-19.5 871.5,-19.5"/>
<text text-anchor="middle" x="923.5" y="-121.5" font-family="Helvetica,sans-Serif" font-size="10.00">DETAIL_ELEMENT</text>
<polyline fill="none" stroke="black" points="871.5,-114.5 975.5,-114.5 "/>
<text text-anchor="start" x="879.5" y="-102.5" font-family="Helvetica,sans-Serif" font-size="10.00">HJID</text>
<polyline fill="none" stroke="black" points="871.5,-95.5 975.5,-95.5 "/>
<text text-anchor="start" x="879.5" y="-83.5" font-family="Helvetica,sans-Serif" font-size="10.00">CODE</text>
<polyline fill="none" stroke="black" points="871.5,-76.5 975.5,-76.5 "/>
<text text-anchor="start" x="879.5" y="-64.5" font-family="Helvetica,sans-Serif" font-size="10.00">DETAIL</text>
<polyline fill="none" stroke="black" points="871.5,-57.5 975.5,-57.5 "/>
<text text-anchor="start" x="879.5" y="-45.5" font-family="Helvetica,sans-Serif" font-size="10.00">DETAIL_TYPE</text>
<polyline fill="none" stroke="black" points="871.5,-38.5 975.5,-38.5 "/>
<text text-anchor="start" x="879.5" y="-26.5" font-family="Helvetica,sans-Serif" font-size="10.00">INTRESSENT_ID</text>
</g>
<!-- PERSON_CONTAINER_ELEMENT -->
<g id="node4" class="node"><title>PERSON_CONTAINER_ELEMENT</title>
<polygon fill="yellow" stroke="black" points="483,-445.5 483,-483.5 660,-483.5 660,-445.5 483,-445.5"/>
<text text-anchor="middle" x="571.5" y="-471.5" font-family="Helvetica,sans-Serif" font-size="10.00">PERSON_CONTAINER_ELEMENT</text>
<polyline fill="none" stroke="black" points="483,-464.5 660,-464.5 "/>
<text text-anchor="start" x="491" y="-452.5" font-family="Helvetica,sans-Serif" font-size="10.00">HJID</text>
</g>
<!-- PERSON_DETAIL_ELEMENT -->
<g id="node5" class="node"><title>PERSON_DETAIL_ELEMENT</title>
<polygon fill="yellow" stroke="black" points="677.5,-436 677.5,-493 871.5,-493 871.5,-436 677.5,-436"/>
<text text-anchor="middle" x="774.5" y="-481" font-family="Helvetica,sans-Serif" font-size="10.00">PERSON_DETAIL_ELEMENT</text>
<polyline fill="none" stroke="black" points="677.5,-474 871.5,-474 "/>
<text text-anchor="start" x="685.5" y="-462" font-family="Helvetica,sans-Serif" font-size="10.00">HJID</text>
<polyline fill="none" stroke="black" points="677.5,-455 871.5,-455 "/>
<text text-anchor="start" x="685.5" y="-443" font-family="Helvetica,sans-Serif" font-size="10.00">DETAIL_LIST_PERSON_DETAIL_EL_0</text>
</g>
<!-- PERSON_DETAIL_ELEMENT&#45;&gt;DETAIL_ELEMENT -->
<g id="edge2" class="edge"><title>PERSON_DETAIL_ELEMENT:se&#45;&gt;DETAIL_ELEMENT:nw</title>
<path fill="none" stroke="lightgrey" d="M871.5,-435.5C963.754,-343.246 786.543,-234.646 864.587,-141.53"/>
<polygon fill="lightgrey" stroke="lightgrey" points="867.316,-143.734 871.5,-134 862.159,-139 867.316,-143.734"/>
<text text-anchor="middle" x="920.5" y="-268.6" font-family="Helvetica,sans-Serif" font-size="8.00">FKjbau0jlkpnfsswgkea8o5u7es</text>
</g>
<!-- PERSON_ELEMENT -->
<g id="node6" class="node"><title>PERSON_ELEMENT</title>
<polygon fill="yellow" stroke="black" points="267,-681.5 267,-1023.5 482,-1023.5 482,-681.5 267,-681.5"/>
<text text-anchor="middle" x="374.5" y="-1011.5" font-family="Helvetica,sans-Serif" font-size="10.00">PERSON_ELEMENT</text>
<polyline fill="none" stroke="black" points="267,-1004.5 482,-1004.5 "/>
<text text-anchor="start" x="275" y="-992.5" font-family="Helvetica,sans-Serif" font-size="10.00">ID</text>
<polyline fill="none" stroke="black" points="267,-985.5 482,-985.5 "/>
<text text-anchor="start" x="275" y="-973.5" font-family="Helvetica,sans-Serif" font-size="10.00">BORN_YEAR</text>
<polyline fill="none" stroke="black" points="267,-966.5 482,-966.5 "/>
<text text-anchor="start" x="275" y="-954.5" font-family="Helvetica,sans-Serif" font-size="10.00">ELECTION_REGION</text>
<polyline fill="none" stroke="black" points="267,-947.5 482,-947.5 "/>
<text text-anchor="start" x="275" y="-935.5" font-family="Helvetica,sans-Serif" font-size="10.00">FIRST_NAME</text>
<polyline fill="none" stroke="black" points="267,-928.5 482,-928.5 "/>
<text text-anchor="start" x="275" y="-916.5" font-family="Helvetica,sans-Serif" font-size="10.00">GENDER</text>
<polyline fill="none" stroke="black" points="267,-909.5 482,-909.5 "/>
<text text-anchor="start" x="275" y="-897.5" font-family="Helvetica,sans-Serif" font-size="10.00">HANGAR_GUID</text>
<polyline fill="none" stroke="black" points="267,-890.5 482,-890.5 "/>
<text text-anchor="start" x="275" y="-878.5" font-family="Helvetica,sans-Serif" font-size="10.00">IMAGE_URL_192</text>
<polyline fill="none" stroke="black" points="267,-871.5 482,-871.5 "/>
<text text-anchor="start" x="275" y="-859.5" font-family="Helvetica,sans-Serif" font-size="10.00">IMAGE_URL_80</text>
<polyline fill="none" stroke="black" points="267,-852.5 482,-852.5 "/>
<text text-anchor="start" x="275" y="-840.5" font-family="Helvetica,sans-Serif" font-size="10.00">IMAGE_URL_MAX</text>
<polyline fill="none" stroke="black" points="267,-833.5 482,-833.5 "/>
<text text-anchor="start" x="275" y="-821.5" font-family="Helvetica,sans-Serif" font-size="10.00">LAST_NAME</text>
<polyline fill="none" stroke="black" points="267,-814.5 482,-814.5 "/>
<text text-anchor="start" x="275" y="-802.5" font-family="Helvetica,sans-Serif" font-size="10.00">PARTY</text>
<polyline fill="none" stroke="black" points="267,-795.5 482,-795.5 "/>
<text text-anchor="start" x="275" y="-783.5" font-family="Helvetica,sans-Serif" font-size="10.00">PERSON_URL_XML</text>
<polyline fill="none" stroke="black" points="267,-776.5 482,-776.5 "/>
<text text-anchor="start" x="275" y="-764.5" font-family="Helvetica,sans-Serif" font-size="10.00">PLACE</text>
<polyline fill="none" stroke="black" points="267,-757.5 482,-757.5 "/>
<text text-anchor="start" x="275" y="-745.5" font-family="Helvetica,sans-Serif" font-size="10.00">STATUS</text>
<polyline fill="none" stroke="black" points="267,-738.5 482,-738.5 "/>
<text text-anchor="start" x="275" y="-726.5" font-family="Helvetica,sans-Serif" font-size="10.00">PERSON_ASSIGNMENT_ELEMENT_PE_0</text>
<polyline fill="none" stroke="black" points="267,-719.5 482,-719.5 "/>
<text text-anchor="start" x="275" y="-707.5" font-family="Helvetica,sans-Serif" font-size="10.00">PERSON_DETAIL_ELEMENT_PERSON_0</text>
<polyline fill="none" stroke="black" points="267,-700.5 482,-700.5 "/>
<text text-anchor="start" x="275" y="-688.5" font-family="Helvetica,sans-Serif" font-size="10.00">PERSON_PERSON_CONTAINER_ELEM_0</text>
</g>
<!-- PERSON_ELEMENT&#45;&gt;PERSON_ASSIGNMENT_ELEMENT -->
<g id="edge3" class="edge"><title>PERSON_ELEMENT:se&#45;&gt;PERSON_ASSIGNMENT_ELEMENT:nw</title>
<path fill="none" stroke="lightgrey" d="M482.5,-681C525.613,-637.887 396.891,-697.326 346.5,-663 274.454,-613.922 190.221,-553.572 240.67,-492.013"/>
<polygon fill="lightgrey" stroke="lightgrey" points="243.363,-494.254 247.5,-484.5 238.183,-489.545 243.363,-494.254"/>
<text text-anchor="middle" x="403.5" y="-656.6" font-family="Helvetica,sans-Serif" font-size="8.00">FKbe0p7x6pw31it41l70k0n2yhy</text>
</g>
<!-- PERSON_ELEMENT&#45;&gt;PERSON_CONTAINER_ELEMENT -->
<g id="edge5" class="edge"><title>PERSON_ELEMENT:se&#45;&gt;PERSON_CONTAINER_ELEMENT:nw</title>
<path fill="none" stroke="lightgrey" d="M482.5,-681C541.721,-621.779 430.566,-552.223 475.811,-492.154"/>
<polygon fill="lightgrey" stroke="lightgrey" points="478.555,-494.333 482.5,-484.5 473.284,-489.726 478.555,-494.333"/>
<text text-anchor="middle" x="558" y="-656.6" font-family="Helvetica,sans-Serif" font-size="8.00">FKefu7l0m5t9n1gewodw90kcidu</text>
</g>
<!-- PERSON_ELEMENT&#45;&gt;PERSON_DETAIL_ELEMENT -->
<g id="edge4" class="edge"><title>PERSON_ELEMENT:se&#45;&gt;PERSON_DETAIL_ELEMENT:nw</title>
<path fill="none" stroke="lightgrey" d="M482.5,-681C526.237,-637.263 572.719,-702.278 620.5,-663 679.138,-614.796 626.498,-555.32 670.612,-501.112"/>
<polygon fill="lightgrey" stroke="lightgrey" points="673.385,-503.263 677.5,-493.5 668.195,-498.566 673.385,-503.263"/>
<text text-anchor="middle" x="686.5" y="-656.6" font-family="Helvetica,sans-Serif" font-size="8.00">FKf9ctg19wht1va2oa88p4ubbgw</text>
</g>
</g>
</svg>
