<?xml version="1.0" encoding="UTF-8" standalone="no"?>
<!DOCTYPE svg PUBLIC "-//W3C//DTD SVG 1.1//EN"
 "http://www.w3.org/Graphics/SVG/1.1/DTD/svg11.dtd">
<!-- Generated by graphviz version 2.38.0 (20140413.2041)
 -->
<!-- Title: TableGraph Pages: 1 -->
<svg width="917pt" height="758pt"
 viewBox="0.00 0.00 916.50 758.00" xmlns="http://www.w3.org/2000/svg" xmlns:xlink="http://www.w3.org/1999/xlink">
<g id="graph0" class="graph" transform="scale(1 1) rotate(0) translate(4 754)">
<title>TableGraph</title>
<g id="a_graph0"><a xlink:href="http://tools.hibernate.org" xlink:title="Table Graph">
<polygon fill="white" stroke="none" points="-4,4 -4,-754 912.5,-754 912.5,4 -4,4"/>
<text text-anchor="middle" x="454.25" y="-7" font-family="Helvetica,sans-Serif" font-size="10.00">Table Graph</text>
</a>
</g>
<!-- AGAINST_PROPOSAL_CONTAINER -->
<g id="node1" class="node"><title>AGAINST_PROPOSAL_CONTAINER</title>
<polygon fill="yellow" stroke="black" points="233.5,-181 233.5,-219 419.5,-219 419.5,-181 233.5,-181"/>
<text text-anchor="middle" x="326.5" y="-207" font-family="Helvetica,sans-Serif" font-size="10.00">AGAINST_PROPOSAL_CONTAINER</text>
<polyline fill="none" stroke="black" points="233.5,-200 419.5,-200 "/>
<text text-anchor="start" x="241.5" y="-188" font-family="Helvetica,sans-Serif" font-size="10.00">HJID</text>
</g>
<!-- AGAINST_PROPOSAL_DATA -->
<g id="node2" class="node"><title>AGAINST_PROPOSAL_DATA</title>
<polygon fill="yellow" stroke="black" points="0,-531 0,-683 201,-683 201,-531 0,-531"/>
<text text-anchor="middle" x="100.5" y="-671" font-family="Helvetica,sans-Serif" font-size="10.00">AGAINST_PROPOSAL_DATA</text>
<polyline fill="none" stroke="black" points="0,-664 201,-664 "/>
<text text-anchor="start" x="8" y="-652" font-family="Helvetica,sans-Serif" font-size="10.00">HJID</text>
<polyline fill="none" stroke="black" points="0,-645 201,-645 "/>
<text text-anchor="start" x="8" y="-633" font-family="Helvetica,sans-Serif" font-size="10.00">HEADER</text>
<polyline fill="none" stroke="black" points="0,-626 201,-626 "/>
<text text-anchor="start" x="8" y="-614" font-family="Helvetica,sans-Serif" font-size="10.00">NUMBER_VALUE</text>
<polyline fill="none" stroke="black" points="0,-607 201,-607 "/>
<text text-anchor="start" x="8" y="-595" font-family="Helvetica,sans-Serif" font-size="10.00">PARTIES</text>
<polyline fill="none" stroke="black" points="0,-588 201,-588 "/>
<text text-anchor="start" x="8" y="-576" font-family="Helvetica,sans-Serif" font-size="10.00">PROPOSAL_ISSUE_NUMBER</text>
<polyline fill="none" stroke="black" points="0,-569 201,-569 "/>
<text text-anchor="start" x="8" y="-557" font-family="Helvetica,sans-Serif" font-size="10.00">PROPOSAL_TYPE</text>
<polyline fill="none" stroke="black" points="0,-550 201,-550 "/>
<text text-anchor="start" x="8" y="-538" font-family="Helvetica,sans-Serif" font-size="10.00">AGAINST_PROPOSAL_LIST_AGAINS_0</text>
</g>
<!-- AGAINST_PROPOSAL_DATA&#45;&gt;AGAINST_PROPOSAL_CONTAINER -->
<g id="edge1" class="edge"><title>AGAINST_PROPOSAL_DATA:se&#45;&gt;AGAINST_PROPOSAL_CONTAINER:nw</title>
<path fill="none" stroke="lightgrey" d="M201.5,-530C224.216,-507.284 211.251,-280.977 228.81,-228.836"/>
<polygon fill="lightgrey" stroke="lightgrey" points="231.903,-230.474 233.5,-220 225.72,-227.192 231.903,-230.474"/>
<text text-anchor="middle" x="272" y="-401.6" font-family="Helvetica,sans-Serif" font-size="8.00">FK3egrje7f0gidhatqcg65xs7v7</text>
</g>
<!-- COMMITTEE_DOCUMENT_DATA -->
<g id="node3" class="node"><title>COMMITTEE_DOCUMENT_DATA</title>
<polygon fill="yellow" stroke="black" points="469.5,-19.5 469.5,-380.5 657.5,-380.5 657.5,-19.5 469.5,-19.5"/>
<text text-anchor="middle" x="563.5" y="-368.5" font-family="Helvetica,sans-Serif" font-size="10.00">COMMITTEE_DOCUMENT_DATA</text>
<polyline fill="none" stroke="black" points="469.5,-361.5 657.5,-361.5 "/>
<text text-anchor="start" x="477.5" y="-349.5" font-family="Helvetica,sans-Serif" font-size="10.00">ID</text>
<polyline fill="none" stroke="black" points="469.5,-342.5 657.5,-342.5 "/>
<text text-anchor="start" x="477.5" y="-330.5" font-family="Helvetica,sans-Serif" font-size="10.00">COMMITTEE_PROPOSAL_URL_XML</text>
<polyline fill="none" stroke="black" points="469.5,-323.5 657.5,-323.5 "/>
<text text-anchor="start" x="477.5" y="-311.5" font-family="Helvetica,sans-Serif" font-size="10.00">CREATED_DATE</text>
<polyline fill="none" stroke="black" points="469.5,-304.5 657.5,-304.5 "/>
<text text-anchor="start" x="477.5" y="-292.5" font-family="Helvetica,sans-Serif" font-size="10.00">DOCUMENT_STATUS_URL_WWW</text>
<polyline fill="none" stroke="black" points="469.5,-285.5 657.5,-285.5 "/>
<text text-anchor="start" x="477.5" y="-273.5" font-family="Helvetica,sans-Serif" font-size="10.00">DOCUMENT_STATUS_URL_XML</text>
<polyline fill="none" stroke="black" points="469.5,-266.5 657.5,-266.5 "/>
<text text-anchor="start" x="477.5" y="-254.5" font-family="Helvetica,sans-Serif" font-size="10.00">DOCUMENT_URL_HTML</text>
<polyline fill="none" stroke="black" points="469.5,-247.5 657.5,-247.5 "/>
<text text-anchor="start" x="477.5" y="-235.5" font-family="Helvetica,sans-Serif" font-size="10.00">DOCUMENT_URL_TEXT</text>
<polyline fill="none" stroke="black" points="469.5,-228.5 657.5,-228.5 "/>
<text text-anchor="start" x="477.5" y="-216.5" font-family="Helvetica,sans-Serif" font-size="10.00">END_NUMBER</text>
<polyline fill="none" stroke="black" points="469.5,-209.5 657.5,-209.5 "/>
<text text-anchor="start" x="477.5" y="-197.5" font-family="Helvetica,sans-Serif" font-size="10.00">HANGAR_ID</text>
<polyline fill="none" stroke="black" points="469.5,-190.5 657.5,-190.5 "/>
<text text-anchor="start" x="477.5" y="-178.5" font-family="Helvetica,sans-Serif" font-size="10.00">LABEL</text>
<polyline fill="none" stroke="black" points="469.5,-171.5 657.5,-171.5 "/>
<text text-anchor="start" x="477.5" y="-159.5" font-family="Helvetica,sans-Serif" font-size="10.00">ORG</text>
<polyline fill="none" stroke="black" points="469.5,-152.5 657.5,-152.5 "/>
<text text-anchor="start" x="477.5" y="-140.5" font-family="Helvetica,sans-Serif" font-size="10.00">PUBLIC_DATE</text>
<polyline fill="none" stroke="black" points="469.5,-133.5 657.5,-133.5 "/>
<text text-anchor="start" x="477.5" y="-121.5" font-family="Helvetica,sans-Serif" font-size="10.00">RM</text>
<polyline fill="none" stroke="black" points="469.5,-114.5 657.5,-114.5 "/>
<text text-anchor="start" x="477.5" y="-102.5" font-family="Helvetica,sans-Serif" font-size="10.00">STATUS</text>
<polyline fill="none" stroke="black" points="469.5,-95.5 657.5,-95.5 "/>
<text text-anchor="start" x="477.5" y="-83.5" font-family="Helvetica,sans-Serif" font-size="10.00">SUB_TITLE</text>
<polyline fill="none" stroke="black" points="469.5,-76.5 657.5,-76.5 "/>
<text text-anchor="start" x="477.5" y="-64.5" font-family="Helvetica,sans-Serif" font-size="10.00">SUB_TYPE</text>
<polyline fill="none" stroke="black" points="469.5,-57.5 657.5,-57.5 "/>
<text text-anchor="start" x="477.5" y="-45.5" font-family="Helvetica,sans-Serif" font-size="10.00">TEMP_LABEL</text>
<polyline fill="none" stroke="black" points="469.5,-38.5 657.5,-38.5 "/>
<text text-anchor="start" x="477.5" y="-26.5" font-family="Helvetica,sans-Serif" font-size="10.00">TITLE</text>
</g>
<!-- COMMITTEE_PROPOSAL_COMPONENT_0 -->
<g id="node4" class="node"><title>COMMITTEE_PROPOSAL_COMPONENT_0</title>
<polygon fill="yellow" stroke="black" points="251.5,-559.5 251.5,-654.5 469.5,-654.5 469.5,-559.5 251.5,-559.5"/>
<text text-anchor="middle" x="360.5" y="-642.5" font-family="Helvetica,sans-Serif" font-size="10.00">COMMITTEE_PROPOSAL_COMPONENT_0</text>
<polyline fill="none" stroke="black" points="251.5,-635.5 469.5,-635.5 "/>
<text text-anchor="start" x="259.5" y="-623.5" font-family="Helvetica,sans-Serif" font-size="10.00">HJID</text>
<polyline fill="none" stroke="black" points="251.5,-616.5 469.5,-616.5 "/>
<text text-anchor="start" x="259.5" y="-604.5" font-family="Helvetica,sans-Serif" font-size="10.00">AGAINST_PROPOSAL_CONTAINER_C_0</text>
<polyline fill="none" stroke="black" points="251.5,-597.5 469.5,-597.5 "/>
<text text-anchor="start" x="259.5" y="-585.5" font-family="Helvetica,sans-Serif" font-size="10.00">COMMITTEE_PROPOSAL_CONTAINER_0</text>
<polyline fill="none" stroke="black" points="251.5,-578.5 469.5,-578.5 "/>
<text text-anchor="start" x="259.5" y="-566.5" font-family="Helvetica,sans-Serif" font-size="10.00">DOCUMENT_COMMITTEE_PROPOSAL__0</text>
</g>
<!-- COMMITTEE_PROPOSAL_COMPONENT_0&#45;&gt;AGAINST_PROPOSAL_CONTAINER -->
<g id="edge2" class="edge"><title>COMMITTEE_PROPOSAL_COMPONENT_0:se&#45;&gt;AGAINST_PROPOSAL_CONTAINER:nw</title>
<path fill="none" stroke="lightgrey" d="M469.5,-558C532.921,-494.579 386.094,-481.365 334.5,-408 282.069,-333.445 175.209,-290.508 226.453,-227.755"/>
<polygon fill="lightgrey" stroke="lightgrey" points="229.365,-229.754 233.5,-220 224.184,-225.047 229.365,-229.754"/>
<text text-anchor="middle" x="391" y="-401.6" font-family="Helvetica,sans-Serif" font-size="8.00">FK9i2al9m5kgd9thektcwsoqp2v</text>
</g>
<!-- COMMITTEE_PROPOSAL_COMPONENT_0&#45;&gt;COMMITTEE_DOCUMENT_DATA -->
<g id="edge4" class="edge"><title>COMMITTEE_PROPOSAL_COMPONENT_0:se&#45;&gt;COMMITTEE_DOCUMENT_DATA:nw</title>
<path fill="none" stroke="lightgrey" d="M469.5,-558C522.518,-504.982 423.937,-442.767 462.743,-388.887"/>
<polygon fill="lightgrey" stroke="lightgrey" points="465.652,-390.871 469.5,-381 460.336,-386.317 465.652,-390.871"/>
<text text-anchor="middle" x="512" y="-401.6" font-family="Helvetica,sans-Serif" font-size="8.00">FK1qvyi065liq2b982befb96n4d</text>
</g>
<!-- COMMITTEE_PROPOSAL_CONTAINER -->
<g id="node5" class="node"><title>COMMITTEE_PROPOSAL_CONTAINER</title>
<polygon fill="yellow" stroke="black" points="706.5,-181 706.5,-219 908.5,-219 908.5,-181 706.5,-181"/>
<text text-anchor="middle" x="807.5" y="-207" font-family="Helvetica,sans-Serif" font-size="10.00">COMMITTEE_PROPOSAL_CONTAINER</text>
<polyline fill="none" stroke="black" points="706.5,-200 908.5,-200 "/>
<text text-anchor="start" x="714.5" y="-188" font-family="Helvetica,sans-Serif" font-size="10.00">HJID</text>
</g>
<!-- COMMITTEE_PROPOSAL_COMPONENT_0&#45;&gt;COMMITTEE_PROPOSAL_CONTAINER -->
<g id="edge3" class="edge"><title>COMMITTEE_PROPOSAL_COMPONENT_0:se&#45;&gt;COMMITTEE_PROPOSAL_CONTAINER:nw</title>
<path fill="none" stroke="lightgrey" d="M469.5,-558C502.96,-524.54 486.463,-497.879 519.5,-464 526.048,-457.286 660.823,-388.465 666.5,-381 708.951,-325.177 659.666,-277.056 699.617,-227.624"/>
<polygon fill="lightgrey" stroke="lightgrey" points="702.397,-229.768 706.5,-220 697.201,-225.078 702.397,-229.768"/>
<text text-anchor="middle" x="689.5" y="-401.6" font-family="Helvetica,sans-Serif" font-size="8.00">FKi3gkr30xryn70y36obj44gbpg</text>
</g>
<!-- COMMITTEE_PROPOSAL_DATA -->
<g id="node6" class="node"><title>COMMITTEE_PROPOSAL_DATA</title>
<polygon fill="yellow" stroke="black" points="528.5,-464.5 528.5,-749.5 738.5,-749.5 738.5,-464.5 528.5,-464.5"/>
<text text-anchor="middle" x="633.5" y="-737.5" font-family="Helvetica,sans-Serif" font-size="10.00">COMMITTEE_PROPOSAL_DATA</text>
<polyline fill="none" stroke="black" points="528.5,-730.5 738.5,-730.5 "/>
<text text-anchor="start" x="536.5" y="-718.5" font-family="Helvetica,sans-Serif" font-size="10.00">HJID</text>
<polyline fill="none" stroke="black" points="528.5,-711.5 738.5,-711.5 "/>
<text text-anchor="start" x="536.5" y="-699.5" font-family="Helvetica,sans-Serif" font-size="10.00">AGAINST_PROPOSAL_NUMBER</text>
<polyline fill="none" stroke="black" points="528.5,-692.5 738.5,-692.5 "/>
<text text-anchor="start" x="536.5" y="-680.5" font-family="Helvetica,sans-Serif" font-size="10.00">AGAINST_PROPOSAL_PARTIES</text>
<polyline fill="none" stroke="black" points="528.5,-673.5 738.5,-673.5 "/>
<text text-anchor="start" x="536.5" y="-661.5" font-family="Helvetica,sans-Serif" font-size="10.00">BALLOT_ID</text>
<polyline fill="none" stroke="black" points="528.5,-654.5 738.5,-654.5 "/>
<text text-anchor="start" x="536.5" y="-642.5" font-family="Helvetica,sans-Serif" font-size="10.00">BALLOT_SUMMARY_ITEM</text>
<polyline fill="none" stroke="black" points="528.5,-635.5 738.5,-635.5 "/>
<text text-anchor="start" x="536.5" y="-623.5" font-family="Helvetica,sans-Serif" font-size="10.00">BALLOT_URL_XML</text>
<polyline fill="none" stroke="black" points="528.5,-616.5 738.5,-616.5 "/>
<text text-anchor="start" x="536.5" y="-604.5" font-family="Helvetica,sans-Serif" font-size="10.00">COMMITTEE_REPORT</text>
<polyline fill="none" stroke="black" points="528.5,-597.5 738.5,-597.5 "/>
<text text-anchor="start" x="536.5" y="-585.5" font-family="Helvetica,sans-Serif" font-size="10.00">DECISION_TYPE</text>
<polyline fill="none" stroke="black" points="528.5,-578.5 738.5,-578.5 "/>
<text text-anchor="start" x="536.5" y="-566.5" font-family="Helvetica,sans-Serif" font-size="10.00">HEADER</text>
<polyline fill="none" stroke="black" points="528.5,-559.5 738.5,-559.5 "/>
<text text-anchor="start" x="536.5" y="-547.5" font-family="Helvetica,sans-Serif" font-size="10.00">ISSUE_NUMBER</text>
<polyline fill="none" stroke="black" points="528.5,-540.5 738.5,-540.5 "/>
<text text-anchor="start" x="536.5" y="-528.5" font-family="Helvetica,sans-Serif" font-size="10.00">PROPOSAL</text>
<polyline fill="none" stroke="black" points="528.5,-521.5 738.5,-521.5 "/>
<text text-anchor="start" x="536.5" y="-509.5" font-family="Helvetica,sans-Serif" font-size="10.00">RM</text>
<polyline fill="none" stroke="black" points="528.5,-502.5 738.5,-502.5 "/>
<text text-anchor="start" x="536.5" y="-490.5" font-family="Helvetica,sans-Serif" font-size="10.00">WINNER</text>
<polyline fill="none" stroke="black" points="528.5,-483.5 738.5,-483.5 "/>
<text text-anchor="start" x="536.5" y="-471.5" font-family="Helvetica,sans-Serif" font-size="10.00">COMMITTEE_PROPOSAL_LIST_COMM_0</text>
</g>
<!-- COMMITTEE_PROPOSAL_DATA&#45;&gt;COMMITTEE_PROPOSAL_CONTAINER -->
<g id="edge5" class="edge"><title>COMMITTEE_PROPOSAL_DATA:se&#45;&gt;COMMITTEE_PROPOSAL_CONTAINER:nw</title>
<path fill="none" stroke="lightgrey" d="M738.5,-464C813.271,-389.229 641.267,-303.257 699.65,-227.742"/>
<polygon fill="lightgrey" stroke="lightgrey" points="702.495,-229.809 706.5,-220 697.252,-225.17 702.495,-229.809"/>
<text text-anchor="middle" x="813.5" y="-401.6" font-family="Helvetica,sans-Serif" font-size="8.00">FKhww95s89vnx8uqpbkk5jb82ly</text>
</g>
</g>
</svg>
