<?xml version="1.0" encoding="UTF-8" standalone="no"?>
<!DOCTYPE svg PUBLIC "-//W3C//DTD SVG 1.1//EN"
 "http://www.w3.org/Graphics/SVG/1.1/DTD/svg11.dtd">
<!-- Generated by graphviz version 2.38.0 (20140413.2041)
 -->
<!-- Title: TableGraph Pages: 1 -->
<svg width="351pt" height="616pt"
 viewBox="0.00 0.00 351.00 615.50" xmlns="http://www.w3.org/2000/svg" xmlns:xlink="http://www.w3.org/1999/xlink">
<g id="graph0" class="graph" transform="scale(1 1) rotate(0) translate(4 611.5)">
<title>TableGraph</title>
<g id="a_graph0"><a xlink:href="http://tools.hibernate.org" xlink:title="Table Graph">
<polygon fill="white" stroke="none" points="-4,4 -4,-611.5 347,-611.5 347,4 -4,4"/>
<text text-anchor="middle" x="171.5" y="-7" font-family="Helvetica,sans-Serif" font-size="10.00">Table Graph</text>
</a>
</g>
<!-- COUNTRIES_ELEMENT -->
<g id="node1" class="node"><title>COUNTRIES_ELEMENT</title>
<polygon fill="yellow" stroke="black" points="214,-19.5 214,-133.5 343,-133.5 343,-19.5 214,-19.5"/>
<text text-anchor="middle" x="278.5" y="-121.5" font-family="Helvetica,sans-Serif" font-size="10.00">COUNTRIES_ELEMENT</text>
<polyline fill="none" stroke="black" points="214,-114.5 343,-114.5 "/>
<text text-anchor="start" x="222" y="-102.5" font-family="Helvetica,sans-Serif" font-size="10.00">HJID</text>
<polyline fill="none" stroke="black" points="214,-95.5 343,-95.5 "/>
<text text-anchor="start" x="222" y="-83.5" font-family="Helvetica,sans-Serif" font-size="10.00">PAGE</text>
<polyline fill="none" stroke="black" points="214,-76.5 343,-76.5 "/>
<text text-anchor="start" x="222" y="-64.5" font-family="Helvetica,sans-Serif" font-size="10.00">PAGES</text>
<polyline fill="none" stroke="black" points="214,-57.5 343,-57.5 "/>
<text text-anchor="start" x="222" y="-45.5" font-family="Helvetica,sans-Serif" font-size="10.00">PER_PAGE</text>
<polyline fill="none" stroke="black" points="214,-38.5 343,-38.5 "/>
<text text-anchor="start" x="222" y="-26.5" font-family="Helvetica,sans-Serif" font-size="10.00">TOTAL</text>
</g>
<!-- COUNTRY_ELEMENT -->
<g id="node2" class="node"><title>COUNTRY_ELEMENT</title>
<polygon fill="yellow" stroke="black" points="-1.42109e-14,-284 -1.42109e-14,-607 213,-607 213,-284 -1.42109e-14,-284"/>
<text text-anchor="middle" x="106.5" y="-595" font-family="Helvetica,sans-Serif" font-size="10.00">COUNTRY_ELEMENT</text>
<polyline fill="none" stroke="black" points="-1.42109e-14,-588 213,-588 "/>
<text text-anchor="start" x="8" y="-576" font-family="Helvetica,sans-Serif" font-size="10.00">HJID</text>
<polyline fill="none" stroke="black" points="-1.42109e-14,-569 213,-569 "/>
<text text-anchor="start" x="8" y="-557" font-family="Helvetica,sans-Serif" font-size="10.00">ADMINREGION_ID</text>
<polyline fill="none" stroke="black" points="-1.42109e-14,-550 213,-550 "/>
<text text-anchor="start" x="8" y="-538" font-family="Helvetica,sans-Serif" font-size="10.00">ADMINREGION_VALUE</text>
<polyline fill="none" stroke="black" points="-1.42109e-14,-531 213,-531 "/>
<text text-anchor="start" x="8" y="-519" font-family="Helvetica,sans-Serif" font-size="10.00">CAPITAL_CITY</text>
<polyline fill="none" stroke="black" points="-1.42109e-14,-512 213,-512 "/>
<text text-anchor="start" x="8" y="-500" font-family="Helvetica,sans-Serif" font-size="10.00">COUNTRY_NAME</text>
<polyline fill="none" stroke="black" points="-1.42109e-14,-493 213,-493 "/>
<text text-anchor="start" x="8" y="-481" font-family="Helvetica,sans-Serif" font-size="10.00">ID</text>
<polyline fill="none" stroke="black" points="-1.42109e-14,-474 213,-474 "/>
<text text-anchor="start" x="8" y="-462" font-family="Helvetica,sans-Serif" font-size="10.00">INCOME_LEVEL_ID</text>
<polyline fill="none" stroke="black" points="-1.42109e-14,-455 213,-455 "/>
<text text-anchor="start" x="8" y="-443" font-family="Helvetica,sans-Serif" font-size="10.00">INCOME_LEVEL_VALUE</text>
<polyline fill="none" stroke="black" points="-1.42109e-14,-436 213,-436 "/>
<text text-anchor="start" x="8" y="-424" font-family="Helvetica,sans-Serif" font-size="10.00">ISO_2CODE</text>
<polyline fill="none" stroke="black" points="-1.42109e-14,-417 213,-417 "/>
<text text-anchor="start" x="8" y="-405" font-family="Helvetica,sans-Serif" font-size="10.00">LATITUDE</text>
<polyline fill="none" stroke="black" points="-1.42109e-14,-398 213,-398 "/>
<text text-anchor="start" x="8" y="-386" font-family="Helvetica,sans-Serif" font-size="10.00">LENDING_TYPE_ID</text>
<polyline fill="none" stroke="black" points="-1.42109e-14,-379 213,-379 "/>
<text text-anchor="start" x="8" y="-367" font-family="Helvetica,sans-Serif" font-size="10.00">LENDING_TYPE_VALUE</text>
<polyline fill="none" stroke="black" points="-1.42109e-14,-360 213,-360 "/>
<text text-anchor="start" x="8" y="-348" font-family="Helvetica,sans-Serif" font-size="10.00">LONGITUDE</text>
<polyline fill="none" stroke="black" points="-1.42109e-14,-341 213,-341 "/>
<text text-anchor="start" x="8" y="-329" font-family="Helvetica,sans-Serif" font-size="10.00">REGION_ID</text>
<polyline fill="none" stroke="black" points="-1.42109e-14,-322 213,-322 "/>
<text text-anchor="start" x="8" y="-310" font-family="Helvetica,sans-Serif" font-size="10.00">REGION_VALUE</text>
<polyline fill="none" stroke="black" points="-1.42109e-14,-303 213,-303 "/>
<text text-anchor="start" x="8" y="-291" font-family="Helvetica,sans-Serif" font-size="10.00">COUNTRY_COUNTRIES_ELEMENT_HJ_0</text>
</g>
<!-- COUNTRY_ELEMENT&#45;&gt;COUNTRIES_ELEMENT -->
<g id="edge1" class="edge"><title>COUNTRY_ELEMENT:se&#45;&gt;COUNTRIES_ELEMENT:nw</title>
<path fill="none" stroke="lightgrey" d="M213.5,-283.5C257.914,-239.086 176.373,-187.032 207.01,-141.782"/>
<polygon fill="lightgrey" stroke="lightgrey" points="209.783,-143.922 213.5,-134 204.407,-139.438 209.783,-143.922"/>
<text text-anchor="middle" x="279.5" y="-259.1" font-family="Helvetica,sans-Serif" font-size="8.00">FKnyef134rhl4klxsky3spfdp7g</text>
</g>
</g>
</svg>
